<svg id="Layer_1" data-name="Layer 1" xmlns="http://www.w3.org/2000/svg" viewBox="0 0 1354 789"><defs><style>.cls-1{fill:#ff4e00;}.cls-2{fill:#fff;}</style></defs><path class="cls-1" d="M544.5,627.5c16-1,43.55-3.56,47-4,62-8,48.85-6.18,67-9,58-9,58-13,83-18,56-11.19,140.28-31.87,316.5-64.5,27-5,41.1-7.47,66-28,59.67-49.19,73.92-130.19,71-210.8-2.11-59.08-.17-118.12-15.5-165.44-15.09-46.55-46.89-81.77-115.7-94.56C986.57,18.84,646.71,88.87,568,99c-1.22.16-64,11-87,17-4,1-32,7-44,9-10.93,1.82-27.36,6.08-37.08,8.25-20.66,4.64-70,23.06-93.28,40.19C229.73,230,189,445.12,282,558c17.68,21.46,30.05,26.87,45,42.11A161.69,161.69,0,0,1,344.5,621.5a286.54,286.54,0,0,1,31.79,54.88,25.93,25.93,0,0,1,2.21,10.48V758.5l48-41.63A63.92,63.92,0,0,0,436,706.5a254.59,254.59,0,0,0,36.47-71Z"/><path class="cls-1" d="M216.61,621.64a6.5,6.5,0,0,1-5.4-2.86C131.6,501.62,143.67,218,231.7,137.14,257.45,113.49,290.86,99.05,333.83,93a6.52,6.52,0,1,1,1.82,12.91c-40.27,5.67-71.39,19-95.12,40.83-82.7,76-93.79,354-18.53,464.7a6.53,6.53,0,0,1-5.39,10.19Z"/><path class="cls-2" d="M395.78,398.19c-11-4.69-20.46-12.86-28.13-24.53a118.56,118.56,0,0,1-16.9-37c-.32-1.24-.55-2.64-.91-4a171,171,0,0,1-3.13-67.24c3.48-21.86,12.38-42.21,26.85-61.09a19.74,19.74,0,0,1,6.12-4.51,14.83,14.83,0,0,1,3.73-1.49,16.88,16.88,0,0,1,6.29-.31c2.42.16,4.56,2.26,6.37,6.17a21,21,0,0,1,.9,2.42c1.06,4.1-.34,7.38-4.18,10a26.56,26.56,0,0,0-8.89,8.15,64.12,64.12,0,0,0-5.48,10.57q-20.24,45.45-8.71,90.08a151.18,151.18,0,0,0,11,29c10.31,20.8,27.24,30.33,50.58,28.78q8.92-.12,11.63,4.94a11.06,11.06,0,0,1,1.08,2.64,10.92,10.92,0,0,1-1.11,8,10.37,10.37,0,0,1-7.08,5.42,18.05,18.05,0,0,1-3.45.5C418.91,405.05,406.69,402.92,395.78,398.19Z"/><path class="cls-2" d="M468.93,363.28a5.89,5.89,0,0,1-.51-1.46,648.78,648.78,0,0,1-21.89-67.93c-.61-2.36-2.58-9.94-5.65-22.81S433.79,238.17,429,210.9a27.21,27.21,0,0,1-.1-12.17c.68-3.5,3-5.7,7-6.73l1.25-.32c5.07-.39,8.39,1.67,10.27,6.35a53.43,53.43,0,0,1,2,6.12,72.92,72.92,0,0,1,1.84,10.13c.34,2.83.76,5.51,1.32,8.15,4.26,20,8.49,39.84,12.75,59.83.35,1.36.86,2.82,1.47,4.66A11.14,11.14,0,0,0,469,291.1a7.79,7.79,0,0,0,4.9,1c1.28-.2,2.55-.4,3.79-.72l3.36-.87a1.63,1.63,0,0,1,.71-.32c1.71-.57,3.45-1,5.28-1.63,7.61-2.38,15.22-4.75,22.79-7.25,3.07-.93,4.87-2.19,5.67-3.72.7-1.38.65-3.62-.13-6.6-.29-1.65-.68-3.14-1.07-4.63l-.71-2.74-11.47-43.18c-3.87-14.38-7.61-28.8-11.36-43.21-2.48-9.57-.51-15.25,6.08-17l.12,0c6.87-1.65,11.48,2.33,14,11.62,2.22,8,4.25,15.87,6.28,23.7q10.4,37.69,20.31,76.17c7.39,28.46,14.72,57.19,21.71,86.15A29.72,29.72,0,0,1,560,366a17.9,17.9,0,0,1-2.59,8.9,8,8,0,0,1-5.14,3.72,14.6,14.6,0,0,1-3.08.4c-4.26-.09-7-1.62-8.45-4.44a26,26,0,0,1-1.5-4.25,29,29,0,0,1-.92-5.6c-.29-1.65-.59-3.3-.85-4.82-.88-3.88-1.6-7.67-2.35-11.59-3-14-6.05-27.88-9.13-41.8l-.29-1.12a9.66,9.66,0,0,0-.93-2.55,3.44,3.44,0,0,0-2.6-1.84h-1.59a3.73,3.73,0,0,0-1.15.17,32.9,32.9,0,0,0-3.66.69c-1.25.32-2.46.77-3.67,1.21l-1.74.46-25.43,7.79a41.87,41.87,0,0,0-4.9,2.07,6.47,6.47,0,0,0-3.17,4.14,10.94,10.94,0,0,0,.29,4.7l.81,3.11a28,28,0,0,0,.9,3l1.4,3.88.16.62c.35.84.73,1.8,1.08,2.63.65,2,1.41,3.89,2.14,5.68.67,1.55,1.31,3,1.82,4.44a58.43,58.43,0,0,1,3.1,8.88,52.83,52.83,0,0,1,1.65,9.92,8.22,8.22,0,0,1-3.3,7.22,9.19,9.19,0,0,1-4.09,2.12,17.31,17.31,0,0,1-5,.24c-2.06-.27-4.23-2-6.4-5.24A30,30,0,0,1,468.93,363.28Z"/><path class="cls-2" d="M546.23,164.54l-.13-.5c-.9-3.48-.67-6.19.77-8.29a10.5,10.5,0,0,1,5.82-4.16l.74-.2a13.29,13.29,0,0,1,6.79.1c2.4.57,4.2,2.36,5.13,5.43l3.35,12.4c.65,3,0,5.29-1.53,6.89a13.73,13.73,0,0,1-6.13,3.45l-.5.13a12.74,12.74,0,0,1-6.23,0q-3.22-1-5.37-5.37Zm54.9,171.58a11.3,11.3,0,0,1-6.26-.1c-2.12-.51-3.91-2.3-5.34-5.25q-4.5-16.53-8.21-30.1c-4.29-15.46-8.28-30.34-12-44.51L568,250.82c-3.35-12.93-7-27.9-10.84-44.81l-.13-.5c-.87-3.35-.64-6.06.8-8.16a10.58,10.58,0,0,1,5.82-4.17,4.2,4.2,0,0,1,1.21-.44,10.38,10.38,0,0,1,5.17,0c1.84.45,3.6,2.12,5.24,4.87a54.15,54.15,0,0,1,4.25,11.24l3.71,14.29c2.93,10.78,6.22,23.45,10.15,38.09s7.29,28.08,10.36,40.41,5,20.2,5.54,23.9c.31,3.24-.29,5.51-1.86,7.12a12,12,0,0,1-5.76,3.35Z"/><path class="cls-2" d="M595.5,153.6a11.2,11.2,0,0,1-1.37-3.22,14.7,14.7,0,0,1,0-6.11c.57-2.4,2.58-4.38,6-6.06l76.5-18c3.9.18,6.77,1.56,8.51,4.16a13.41,13.41,0,0,1,1.56,3.44,12.51,12.51,0,0,1-.17,6c-.57,2.4-2.61,4.26-6.24,5.6-2.08.67-4.07,1.19-6.18,1.74L665,143.5a20.74,20.74,0,0,0-4.22,1.63,5.73,5.73,0,0,0-2.93,3.55.8.8,0,0,0,0,.53c-.09.15,0,.4-.09.68l.14,1.56.39,1.49a19.64,19.64,0,0,0,.55,2.64l.45,1.74c3,12.21,6.08,24.42,9.24,36.6,6.43,25.26,12.6,50.58,18.78,75.9,3.08,13.4,5.63,26.8,7.72,40.45.56,3.7,1.25,7.36,1.81,11.07.64,5-.42,8.6-3.14,10.89a10.22,10.22,0,0,1-4.18,2.28c-1.62.42-3.8.19-6.49-.44s-4.73-3.41-6.24-8.19c-2.58-10.47-4.87-22.35-7.14-35.69-2.13-12.31-4.48-23.9-7.07-34.9-.68-3.14-1.46-6.12-2.23-9.11L658,237l-6.66-26.66c-4.49-17.8-9-35.61-13.59-53.37l-.07-.25c-.83-3.24-2.93-4.68-6.32-4.46l-2.4.49-2.33.73-4.72,1.23c-2.36.61-5.22,1.36-8.48,2.07a44.91,44.91,0,0,1-10.08,1l-.28-.06C599.68,157.42,597.08,156.11,595.5,153.6Z"/><path class="cls-2" d="M709.94,518.76c-10.19-6.31-18.27-15.8-24.09-28.5a118.76,118.76,0,0,1-11.12-39.12c-.13-1.28-.14-2.7-.29-4.1a170.7,170.7,0,0,1,7.07-66.94q10.11-31.62,35.77-56.33a19.37,19.37,0,0,1,6.73-3.53,14.64,14.64,0,0,1,3.91-.92,17.1,17.1,0,0,1,6.26.65c2.38.53,4.17,2.93,5.37,7.06a19.33,19.33,0,0,1,.52,2.53c.43,4.21-1.45,7.25-5.63,9.23a26.61,26.61,0,0,0-10,6.7,66,66,0,0,0-7,9.63Q690.54,397,695.18,442.84a151.36,151.36,0,0,0,6.47,30.31c7,22.12,22.34,34.1,45.65,36.1q8.84,1.22,10.75,6.64a11.25,11.25,0,0,1,.67,2.77,11,11,0,0,1-2.31,7.72,10.39,10.39,0,0,1-7.82,4.29,18.53,18.53,0,0,1-3.48,0C731.78,529,720,525.09,709.94,518.76Z"/><path class="cls-2" d="M787.53,495.31a6.17,6.17,0,0,1-.28-1.52,649.12,649.12,0,0,1-11.37-70.46c-.25-2.43-1-10.22-2.14-23.4s-2-33.61-2.68-61.29a27.09,27.09,0,0,1,1.73-12.05c1.2-3.35,3.85-5.17,7.94-5.59l1.28-.13c5.07.38,8,2.91,9.19,7.83a50.51,50.51,0,0,1,1,6.34,72,72,0,0,1,.28,10.3c-.09,2.85-.07,5.56.08,8.25,1.19,20.4,2.37,40.67,3.56,61.07.14,1.4.43,2.92.75,4.83a11.3,11.3,0,0,0,1.62,4.48,7.85,7.85,0,0,0,4.7,1.71,37.89,37.89,0,0,0,3.85-.14l3.45-.35a1.61,1.61,0,0,1,.76-.21c1.77-.31,3.56-.49,5.46-.82,7.88-1.2,15.76-2.39,23.63-3.72,3.17-.45,5.14-1.43,6.16-2.82s1.19-3.48.87-6.55c0-1.67-.2-3.2-.35-4.73l-.29-2.81L842,359.11c-1.65-14.81-3.17-29.62-4.69-44.44-1-9.83,1.8-15.15,8.56-15.85H846c7-.59,11,4,12.11,13.6,1,8.29,1.81,16.33,2.63,24.38q4.57,38.83,8.57,78.36c3,29.25,5.91,58.77,8.44,88.45a30,30,0,0,1-.58,8.19,18,18,0,0,1-3.91,8.4,8,8,0,0,1-5.64,2.91,15.07,15.07,0,0,1-3.11-.07c-4.2-.73-6.72-2.67-7.68-5.67a25.74,25.74,0,0,1-.84-4.43,29.66,29.66,0,0,1-.07-5.67c0-1.67-.08-3.35-.11-4.89-.28-4-.42-7.83-.57-11.82-.82-14.24-1.76-28.47-2.71-42.7l-.12-1.15a9.45,9.45,0,0,0-.53-2.65,3.43,3.43,0,0,0-2.29-2.22l-1.57-.22a3.77,3.77,0,0,0-1.16,0,34,34,0,0,0-3.73.13,38.38,38.38,0,0,0-3.81.65l-1.79.18-26.31,3.87a39.38,39.38,0,0,0-5.16,1.3,6.46,6.46,0,0,0-3.76,3.61,10.92,10.92,0,0,0-.42,4.69l.32,3.2a30.08,30.08,0,0,0,.45,3c.25,1.26.53,2.65.8,4.05l.06.64c.22.88.46,1.88.68,2.77.33,2,.8,4,1.25,5.93.43,1.64.84,3.14,1.12,4.66a57.71,57.71,0,0,1,1.73,9.25,52.66,52.66,0,0,1,.13,10.05,8.22,8.22,0,0,1-4.35,6.64,9.2,9.2,0,0,1-4.37,1.48,17.44,17.44,0,0,1-5-.52c-2-.57-3.87-2.57-5.53-6.14A30.06,30.06,0,0,1,787.53,495.31Z"/><path class="cls-2" d="M924.11,489.54a8.74,8.74,0,0,1-10.9.6c-3.45-2.1-5.57-6.4-6.24-12.91-.07-.76,0-1.54-.12-2.44s0-2.07.07-3.1c-.29-26.69-.21-48.51.37-65.48s2.19-39.07,5.18-66.48a79.49,79.49,0,0,1,14-36.28c4.37-6.38,9.31-9.86,14.67-10.41.64-.07,2.58,0,5.94,0s7.12,3.92,11.25,11.5c5.23,10.69,10.43,24.87,15.5,42.8s9.61,35.8,13.53,53.85,6.73,32.87,8.55,44.3q.72,5.14,2.52,13.29c1.19,5.3,2.11,10.49,3,15.44a65,65,0,0,1,1.05,6.47,19.73,19.73,0,0,1,.06,4.38c-.75,3.95-2.42,6.57-5.11,8a11.87,11.87,0,0,1-4,1.32,14.57,14.57,0,0,1-5.67-1.1c-2.27-.8-3.93-3.08-5.07-6.71-3.21-13.61-6.19-28.79-8.81-45.55q-1.47-8.56-2.77-15.6c-.69-3-1.66-4.86-3-5.36a5,5,0,0,0-2.61-.25,14,14,0,0,0-3.65.89l-8,2.75L949.62,425c-2.12.73-4.37,1.48-6.61,2.23-3,.95-6,2-8.86,3a17.39,17.39,0,0,0-4.54,2.28,6.52,6.52,0,0,0-2.41,4.24,35.29,35.29,0,0,0-.13,3.76c.1,3.47.19,6.82.16,10.31a204.43,204.43,0,0,0,1.12,23.5C929,481.55,927.57,486.73,924.11,489.54Zm4.15-87.8a25.44,25.44,0,0,0,.58,3.16,4,4,0,0,0,1.27,2.33,4.11,4.11,0,0,0,2.64.5l1.4-.14a9.13,9.13,0,0,0,2.26-.62c.13,0,.39,0,.5-.18a.83.83,0,0,0,.5-.18l.25,0,3.76-1.16c1.23-.51,2.48-.9,3.73-1.29s2.88-.94,4.38-1.35c2.88-.94,5.88-1.89,8.75-2.83a8.17,8.17,0,0,0,4-2.48,6.89,6.89,0,0,0,1.07-4.63l-.11-1.15a13.71,13.71,0,0,0-.37-2.28,1.81,1.81,0,0,0-.22-.88c-.8-4-1.6-8.1-2.52-12a383.35,383.35,0,0,0-12.45-40.79c-.17-.37-.21-.75-.39-1.25-.55-1.62-1.27-3.61-2.13-5.72s-2-3.28-3.23-3.8a4.11,4.11,0,0,0-1.16,0,3.09,3.09,0,0,0-1.84,1,6.66,6.66,0,0,0-1.43,2.46,44.39,44.39,0,0,0-1.36,4.27,37.93,37.93,0,0,0-1.22,4.52l-.2.54c-.28,1.06-.43,2.1-.72,3a233.35,233.35,0,0,0-4.25,29c-.92,9.9-1.34,19.62-1.51,29.32A13.65,13.65,0,0,0,928.26,401.74Z"/><path class="cls-2" d="M991.85,302.28a10.87,10.87,0,0,1-.87-3.39,14.44,14.44,0,0,1,.93-6c.93-2.28,3.21-3.94,6.84-5.09l78.34-6.24c3.82.77,6.46,2.57,7.79,5.4a13.21,13.21,0,0,1,1,3.64,12.49,12.49,0,0,1-1.07,5.92c-.92,2.28-3.22,3.81-7,4.59-2.16.35-4.2.56-6.37.78l-9.33,1a20.12,20.12,0,0,0-4.41,1,5.71,5.71,0,0,0-3.43,3.06.78.78,0,0,0-.08.53c-.11.14-.09.39-.19.66l-.1,1.56.16,1.53a20.27,20.27,0,0,0,.15,2.7l.18,1.78c1.16,12.53,2.32,25.06,3.6,37.58,2.54,25.94,4.82,51.91,7.1,77.87,1,13.71,1.51,27.34,1.51,41.15,0,3.74.13,7.47.12,11.21-.12,5-1.71,8.44-4.75,10.3a10.28,10.28,0,0,1-4.48,1.62c-1.66.17-3.78-.39-6.34-1.41s-4.16-4.09-4.93-9.05c-1-10.74-1.44-22.82-1.67-36.35-.25-12.5-.81-24.31-1.71-35.58-.2-3.2-.52-6.27-.83-9.33l-1-9.45-2.56-27.36c-1.74-18.28-3.49-36.55-5.37-54.82l0-.25c-.34-3.32-2.2-5.07-5.59-5.37l-2.44.13-2.41.37-4.86.5c-2.42.25-5.36.55-8.69.76a44.84,44.84,0,0,1-10.12-.5l-.27-.11C995.4,306.69,993,305,991.85,302.28Z"/></svg>