<svg id="Layer_1" data-name="Layer 1" xmlns="http://www.w3.org/2000/svg" xmlns:xlink="http://www.w3.org/1999/xlink" viewBox="0 0 2829 1811"><defs><style>.cls-1{fill:none;}.cls-2{fill:#fff;}.cls-3{clip-path:url(#clip-path);}.cls-4{fill:#222;}</style><clipPath id="clip-path"><rect class="cls-1" width="2829" height="1811"/></clipPath></defs><rect class="cls-2" width="2829" height="1811"/><g class="cls-3"><path class="cls-4" d="M1513.13,1782.5a1.66,1.66,0,0,1-1.06-.39,1.62,1.62,0,0,1-.18-2.3l15.53-18.28a1.63,1.63,0,0,1,2.48,2.12l-15.53,18.28A1.61,1.61,0,0,1,1513.13,1782.5Z"/><path class="cls-4" d="M159.86,225.75a1.63,1.63,0,0,1-.88-3l22.41-14.5a1.63,1.63,0,1,1,1.77,2.74l-22.41,14.5A1.59,1.59,0,0,1,159.86,225.75Z"/><path class="cls-4" d="M706.94,716a1.63,1.63,0,0,1-1.63-1.59L704,661.87a1.63,1.63,0,0,1,1.59-1.68,1.57,1.57,0,0,1,1.67,1.59l1.33,52.55A1.63,1.63,0,0,1,707,716Z"/><path class="cls-4" d="M1809.36,601.36a1.63,1.63,0,0,1-1.59-1.3L1796.55,546a1.63,1.63,0,0,1,3.2-.66l11.22,54a1.63,1.63,0,0,1-1.27,1.93A1.27,1.27,0,0,1,1809.36,601.36Z"/><path class="cls-4" d="M1444.56,1799.87a1.64,1.64,0,0,1-1.18-.5L1410,1764.94a1.63,1.63,0,1,1,2.34-2.27l33.4,34.43a1.64,1.64,0,0,1-1.17,2.77Z"/><path class="cls-4" d="M646.93,22.34h-.18L522.51,8.65a1.64,1.64,0,0,1-1.45-1.8,1.63,1.63,0,0,1,1.81-1.45L647.11,19.08a1.64,1.64,0,0,1-.18,3.26Z"/><path class="cls-4" d="M616.05,923.76a1.65,1.65,0,0,1-1.58-1.22l-7.45-28a1.64,1.64,0,0,1,1.16-2,1.61,1.61,0,0,1,2,1.16l7.45,28a1.63,1.63,0,0,1-1.16,2A1.52,1.52,0,0,1,616.05,923.76Z"/><path class="cls-4" d="M1689.54,777.12a1.81,1.81,0,0,1-.4,0,1.65,1.65,0,0,1-1.19-2l6.89-27.4a1.62,1.62,0,0,1,2-1.18,1.64,1.64,0,0,1,1.19,2l-6.89,27.4A1.62,1.62,0,0,1,1689.54,777.12Z"/><path class="cls-4" d="M1740.39,689h-.21a1.63,1.63,0,0,1-1.41-1.83l11.69-88.6a1.62,1.62,0,0,1,1.83-1.41,1.65,1.65,0,0,1,1.41,1.83L1742,687.55A1.63,1.63,0,0,1,1740.39,689Z"/><path class="cls-4" d="M923.8,53.64a1.67,1.67,0,0,1-1.14-.46L866.91-.68a1.63,1.63,0,0,1,0-2.31,1.65,1.65,0,0,1,2.31,0l55.75,53.86a1.63,1.63,0,0,1-1.13,2.81Z"/><path class="cls-4" d="M1741.9,827.94a1.63,1.63,0,0,1-.61-3.15l30.15-12a1.64,1.64,0,1,1,1.22,3l-30.16,12A1.61,1.61,0,0,1,1741.9,827.94Z"/><path class="cls-4" d="M258.21,289.67a1.63,1.63,0,0,1-1.61-1.41l-7.07-49.89a1.62,1.62,0,0,1,1.39-1.84,1.66,1.66,0,0,1,1.84,1.39l7.07,49.88a1.63,1.63,0,0,1-1.39,1.85Z"/><path class="cls-4" d="M1443,1701.65a1.62,1.62,0,0,1-1.35-.72,1.64,1.64,0,0,1,.43-2.27l34.46-23.34a1.63,1.63,0,0,1,1.83,2.7l-34.46,23.35A1.62,1.62,0,0,1,1443,1701.65Z"/><path class="cls-4" d="M436.75,1612.27a1.63,1.63,0,0,1-.39-3.21l24.82-6.08a1.63,1.63,0,1,1,.78,3.17l-24.82,6.08A1.72,1.72,0,0,1,436.75,1612.27Z"/><path class="cls-4" d="M1121.69,1529.7a1.64,1.64,0,0,1-1.54-2.16l10.69-31.67a1.65,1.65,0,0,1,2.07-1,1.63,1.63,0,0,1,1,2.07l-10.7,31.68A1.63,1.63,0,0,1,1121.69,1529.7Z"/><path class="cls-4" d="M990.55,1569.91a1.64,1.64,0,0,1-1.33-.68,1.62,1.62,0,0,1,.38-2.28l32-23a1.64,1.64,0,0,1,2.28.38,1.61,1.61,0,0,1-.38,2.27l-32,22.95A1.61,1.61,0,0,1,990.55,1569.91Z"/><path class="cls-4" d="M141.62,786a1.63,1.63,0,0,1-.82-.22L118.22,772.7a1.63,1.63,0,0,1,1.63-2.83l22.59,13.07a1.64,1.64,0,0,1-.82,3Z"/><path class="cls-4" d="M226.35,1126.52a1.61,1.61,0,0,1-1-.3L186,1097.81a1.63,1.63,0,1,1,1.91-2.64l39.36,28.4a1.63,1.63,0,0,1-1,3Z"/><path class="cls-4" d="M790,1414a1.64,1.64,0,0,1-1.54-1.09l-22.42-63.53a1.63,1.63,0,1,1,3.08-1.09l22.42,63.54a1.63,1.63,0,0,1-1,2.08A1.7,1.7,0,0,1,790,1414Z"/><path class="cls-4" d="M461.33,743.7h-.22a1.65,1.65,0,0,1-1.41-1.83l7.22-56.3a1.63,1.63,0,1,1,3.24.41l-7.22,56.31A1.63,1.63,0,0,1,461.33,743.7Z"/><path class="cls-4" d="M1537.58,44a1.61,1.61,0,0,1-1.62-1.57l-1-33.76A1.63,1.63,0,0,1,1536.49,7h0a1.62,1.62,0,0,1,1.62,1.57l1,33.76a1.61,1.61,0,0,1-1.56,1.67Z"/><path class="cls-4" d="M888.2,837.1H888a1.64,1.64,0,0,1-1.39-1.84l4.07-29.58a1.65,1.65,0,0,1,1.84-1.39,1.63,1.63,0,0,1,1.4,1.84l-4.08,29.57A1.63,1.63,0,0,1,888.2,837.1Z"/><path class="cls-4" d="M435.82,1392.56h-.09l-117.33-5.87a1.63,1.63,0,0,1-1.54-1.72,1.53,1.53,0,0,1,1.71-1.54l117.33,5.87a1.63,1.63,0,0,1-.08,3.26Z"/><path class="cls-4" d="M1078.79,618.46a1.63,1.63,0,0,1-.61-3.14l27-11a1.63,1.63,0,1,1,1.24,3l-27,11A1.67,1.67,0,0,1,1078.79,618.46Z"/><path class="cls-4" d="M476.75,1537a1.6,1.6,0,0,1-1.26-.6L409,1454.8a1.63,1.63,0,1,1,2.53-2.06L478,1534.33a1.64,1.64,0,0,1-.24,2.3A1.66,1.66,0,0,1,476.75,1537Z"/><path class="cls-4" d="M1107.19,1732.83a1.67,1.67,0,0,1-1.36-.72l-71.47-106.33a1.63,1.63,0,1,1,2.71-1.82l71.47,106.32a1.64,1.64,0,0,1-1.35,2.55Z"/><path class="cls-4" d="M202.31,386.84a1.63,1.63,0,0,1-1.06-2.87L222.19,366a1.64,1.64,0,0,1,2.3.18,1.62,1.62,0,0,1-.18,2.3l-20.93,17.93A1.66,1.66,0,0,1,202.31,386.84Z"/><path class="cls-4" d="M436.43,19h0l-93.17-2.44a1.63,1.63,0,0,1-1.59-1.67,1.72,1.72,0,0,1,1.68-1.59l93.16,2.44a1.63,1.63,0,0,1,0,3.26Z"/><path class="cls-4" d="M864.74,995.69a1.62,1.62,0,0,1-.94-.3l-78.13-54.88a1.63,1.63,0,0,1,1.87-2.67l78.13,54.88a1.63,1.63,0,0,1-.93,3Z"/><path class="cls-4" d="M800.33,658.74a1.63,1.63,0,0,1-1.22-2.72l53.94-60.36a1.63,1.63,0,1,1,2.43,2.18L801.55,658.2A1.63,1.63,0,0,1,800.33,658.74Z"/><path class="cls-4" d="M625.67,1792.16a1.63,1.63,0,0,1-1.23-2.71L639.8,1772a1.63,1.63,0,1,1,2.45,2.16l-15.35,17.49A1.67,1.67,0,0,1,625.67,1792.16Z"/><path class="cls-4" d="M1410.84,1182.22l-.33,0-112.69-22.71a1.63,1.63,0,0,1-1.28-1.92,1.65,1.65,0,0,1,1.92-1.28l112.7,22.71a1.63,1.63,0,0,1-.32,3.23Z"/><path class="cls-4" d="M748.72,1553h-.07l-52.77-2.08a1.63,1.63,0,0,1-1.56-1.7,1.6,1.6,0,0,1,1.69-1.57l52.77,2.09a1.63,1.63,0,0,1-.06,3.26Z"/><path class="cls-4" d="M475,200.15a1.63,1.63,0,0,1-1.63-1.49,1.65,1.65,0,0,1,1.49-1.77l112.74-9.4a1.65,1.65,0,0,1,1.76,1.49,1.62,1.62,0,0,1-1.48,1.76l-112.74,9.4Z"/><path class="cls-4" d="M827.83,1707.43a1.63,1.63,0,0,1-.92-.28,1.65,1.65,0,0,1-.43-2.27l17.09-25a1.63,1.63,0,0,1,2.7,1.84l-17.09,25A1.64,1.64,0,0,1,827.83,1707.43Z"/><path class="cls-4" d="M1089.29,865.93a1.64,1.64,0,0,1-1-.33l-24.25-18.37a1.63,1.63,0,0,1,2-2.6L1090.27,863a1.64,1.64,0,0,1,.32,2.29A1.66,1.66,0,0,1,1089.29,865.93Z"/><path class="cls-4" d="M134.76,137.92a1.62,1.62,0,0,1-1.49-1l-16.08-36.37a1.63,1.63,0,0,1,3-1.32l16.08,36.37a1.64,1.64,0,0,1-.83,2.16A1.7,1.7,0,0,1,134.76,137.92Z"/><path class="cls-4" d="M1017,1132.65h-.1a1.63,1.63,0,0,1-1.53-1.73l1.4-23.07a1.55,1.55,0,0,1,1.72-1.53,1.63,1.63,0,0,1,1.53,1.73l-1.4,23.07A1.63,1.63,0,0,1,1017,1132.65Z"/><path class="cls-4" d="M1444.35,931.65a1.74,1.74,0,0,1-.66-.14,1.65,1.65,0,0,1-.83-2.16l43.34-97.41a1.63,1.63,0,1,1,3,1.33l-43.33,97.41A1.64,1.64,0,0,1,1444.35,931.65Z"/><path class="cls-4" d="M281.52,1802.86a1.64,1.64,0,0,1-.53-.09l-79.81-27.62a1.63,1.63,0,0,1,1.06-3.09l79.81,27.62a1.63,1.63,0,0,1-.53,3.18Z"/><path class="cls-4" d="M620.33,424.25h-.15l-94.25-8.44a1.63,1.63,0,0,1-1.48-1.77,1.61,1.61,0,0,1,1.77-1.48L620.47,421a1.63,1.63,0,0,1-.14,3.26Z"/><path class="cls-4" d="M1565.39,1094.52a1.63,1.63,0,0,1-.56-3.16l21.11-7.71a1.63,1.63,0,0,1,1.12,3.07l-21.12,7.7A1.52,1.52,0,0,1,1565.39,1094.52Z"/><path class="cls-4" d="M377.61,1217.93a1.63,1.63,0,0,1-1.55-1.13l-8.79-26.9a1.64,1.64,0,0,1,3.11-1l8.78,26.91a1.64,1.64,0,0,1-1,2.06A1.81,1.81,0,0,1,377.61,1217.93Z"/><path class="cls-4" d="M812.21,874.63a1.64,1.64,0,0,1-1.38-.75L756.17,789.4a1.63,1.63,0,0,1,2.74-1.77l54.67,84.48a1.64,1.64,0,0,1-.49,2.26A1.67,1.67,0,0,1,812.21,874.63Z"/><path class="cls-4" d="M1603.57,528.08a1.59,1.59,0,0,1-.84-.23l-74.94-44.93a1.63,1.63,0,0,1-.56-2.24,1.61,1.61,0,0,1,2.24-.56l74.94,44.93a1.63,1.63,0,0,1-.84,3Z"/><path class="cls-4" d="M1276.43,1787.59a1.63,1.63,0,0,1-.18-3.25l77-8.66a1.65,1.65,0,0,1,1.8,1.45,1.63,1.63,0,0,1-1.44,1.8l-76.94,8.66Z"/><path class="cls-4" d="M1086.55,363.34h-.1a1.64,1.64,0,0,1-1.53-1.73l4.92-80.18a1.63,1.63,0,0,1,3.26.2l-4.92,80.18A1.63,1.63,0,0,1,1086.55,363.34Z"/><path class="cls-4" d="M1084.93,531.44a1.63,1.63,0,0,1-1.11-2.83l30.63-28.6a1.63,1.63,0,1,1,2.23,2.38L1086,531A1.63,1.63,0,0,1,1084.93,531.44Z"/><path class="cls-4" d="M112,412.33a1.6,1.6,0,0,1-1.25-.6L94.93,392.56a1.63,1.63,0,1,1,2.52-2.08l15.85,19.18a1.61,1.61,0,0,1-.22,2.29A1.57,1.57,0,0,1,112,412.33Z"/><path class="cls-4" d="M3.89,142.44a1.63,1.63,0,0,1-.48-3.19l37.68-11.59a1.63,1.63,0,1,1,1,3.12L4.38,142.37A1.71,1.71,0,0,1,3.89,142.44Z"/><path class="cls-4" d="M1796.25,368.39a1.64,1.64,0,0,1-1.61-1.35l-8.4-49a1.65,1.65,0,0,1,1.33-1.89,1.63,1.63,0,0,1,1.89,1.34l8.4,48.95a1.63,1.63,0,0,1-1.33,1.88A1.37,1.37,0,0,1,1796.25,368.39Z"/><path class="cls-4" d="M1257,1670.93a1.64,1.64,0,0,1-.1-3.27l33.55-2.17a1.68,1.68,0,0,1,1.73,1.52,1.63,1.63,0,0,1-1.52,1.74l-33.55,2.17Z"/><path class="cls-4" d="M1428.81,553.78a1.69,1.69,0,0,1-.53-.09l-40.21-13.83a1.63,1.63,0,1,1,1.07-3.08l40.21,13.83a1.63,1.63,0,0,1-.54,3.17Z"/><path class="cls-4" d="M1291.48,1424.21a1.63,1.63,0,0,1-1.06-2.86l49-42.11a1.63,1.63,0,0,1,2.13,2.48l-49,42.1A1.66,1.66,0,0,1,1291.48,1424.21Z"/><path class="cls-4" d="M1790.9,742.66a1.74,1.74,0,0,1-.5-.08,1.63,1.63,0,0,1-1.06-2.05l9-28.24a1.63,1.63,0,0,1,3.11,1l-9,28.24A1.62,1.62,0,0,1,1790.9,742.66Z"/><path class="cls-4" d="M452.85,1309.38h-.21a1.64,1.64,0,0,1-1.42-1.82l2.91-23.34a1.63,1.63,0,1,1,3.24.4L454.46,1308A1.62,1.62,0,0,1,452.85,1309.38Z"/><path class="cls-4" d="M795.61,187.75a1.62,1.62,0,0,1-1.16-2.77l68.24-69.7a1.63,1.63,0,1,1,2.33,2.28l-68.24,69.7A1.61,1.61,0,0,1,795.61,187.75Z"/><path class="cls-4" d="M890.37,252.78a1.63,1.63,0,0,1-1-2.91l26.47-21a1.62,1.62,0,0,1,2.29.26,1.64,1.64,0,0,1-.27,2.3l-26.46,21A1.63,1.63,0,0,1,890.37,252.78Z"/><path class="cls-4" d="M1610.07,257.77a1.64,1.64,0,0,1-1.61-1.37l-3.61-22a1.63,1.63,0,0,1,3.22-.53l3.61,22a1.62,1.62,0,0,1-1.34,1.87Z"/><path class="cls-4" d="M1803.39,1654.85a1.63,1.63,0,0,1-1.51-1l-12.18-29.58a1.63,1.63,0,1,1,3-1.25l12.19,29.59a1.64,1.64,0,0,1-.89,2.13A1.67,1.67,0,0,1,1803.39,1654.85Z"/><path class="cls-4" d="M1557.21,1027.21a1.62,1.62,0,0,1-.87-.25L1489,984a1.63,1.63,0,1,1,1.76-2.75l67.38,42.94a1.64,1.64,0,0,1,.51,2.26A1.66,1.66,0,0,1,1557.21,1027.21Z"/><path class="cls-4" d="M197.26,609.57a1.64,1.64,0,0,1-1.58-1.19L159.74,480.26a1.63,1.63,0,0,1,3.14-.88l36,128.12a1.63,1.63,0,0,1-1.13,2A1.72,1.72,0,0,1,197.26,609.57Z"/><path class="cls-4" d="M162.88,702.69a1.59,1.59,0,0,1-1.1-.43l-16.4-15a1.63,1.63,0,1,1,2.21-2.41l16.39,15a1.64,1.64,0,0,1-1.1,2.84Z"/><path class="cls-4" d="M607.43,1208.16a1.64,1.64,0,0,1-.91-3l24.84-16.72a1.63,1.63,0,1,1,1.82,2.71l-24.84,16.72A1.6,1.6,0,0,1,607.43,1208.16Z"/><path class="cls-4" d="M1098.87,1070h-.26a1.62,1.62,0,0,1-1.61-1.64l1.5-95.79a1.81,1.81,0,0,1,1.77-1.61,1.7,1.7,0,0,1,1.73,1.66l-1.5,95.77A1.63,1.63,0,0,1,1098.87,1070Z"/><path class="cls-4" d="M1249.07,92.11a1.61,1.61,0,0,1-1.36-.73L1197.27,15.5a1.63,1.63,0,1,1,2.72-1.8l50.44,75.88a1.63,1.63,0,0,1-.46,2.26A1.66,1.66,0,0,1,1249.07,92.11Z"/><path class="cls-4" d="M1360.68,1491.68a1.63,1.63,0,0,1-1.49-1,1.65,1.65,0,0,1,.83-2.16l46.87-20.85a1.63,1.63,0,1,1,1.33,3l-46.87,20.86A1.75,1.75,0,0,1,1360.68,1491.68Z"/><path class="cls-4" d="M782.4,532.35a1.56,1.56,0,0,1-.8-.22,1.63,1.63,0,0,1-.62-2.22l15.95-28a1.63,1.63,0,1,1,2.84,1.62l-15.95,28A1.63,1.63,0,0,1,782.4,532.35Z"/><path class="cls-4" d="M472.71,271h0L347,267.24a1.64,1.64,0,0,1-1.59-1.68,1.62,1.62,0,0,1,1.68-1.58l125.64,3.76a1.63,1.63,0,0,1-.05,3.26Z"/><path class="cls-4" d="M1162.17,1666.72a1.63,1.63,0,0,1-.29-3.23l23.91-4.33a1.63,1.63,0,1,1,.58,3.21l-23.91,4.33Z"/><path class="cls-4" d="M691,1230a1.63,1.63,0,0,1-.1-3.26l25.66-1.63a1.63,1.63,0,0,1,.21,3.26L691.07,1230Z"/><path class="cls-4" d="M5.92,255.19a1.64,1.64,0,0,1-1.62-1.5L2.13,227.27a1.64,1.64,0,0,1,1.5-1.76A1.7,1.7,0,0,1,5.39,227l2.16,26.41a1.62,1.62,0,0,1-1.49,1.76Z"/><path class="cls-4" d="M675.69,1317.16a1.66,1.66,0,0,1-1.09-.41l-23-20.61a1.63,1.63,0,0,1,2.17-2.44l23,20.61a1.63,1.63,0,0,1-1.09,2.85Z"/><path class="cls-4" d="M1047.93,450.88a1.79,1.79,0,0,1-.71-.16L941.44,400a1.63,1.63,0,1,1,1.41-2.95l105.78,50.72a1.63,1.63,0,0,1-.7,3.11Z"/><path class="cls-4" d="M1799.12,1783a1.64,1.64,0,0,1-1.54-1.06l-9.48-25.74a1.63,1.63,0,1,1,3.06-1.13l9.49,25.74a1.63,1.63,0,0,1-1,2.09A1.62,1.62,0,0,1,1799.12,1783Z"/><path class="cls-4" d="M1558.6,1575.39a1.62,1.62,0,0,1-1.07-.4l-31-27a1.63,1.63,0,0,1,2.14-2.47l31,27a1.63,1.63,0,0,1-1.08,2.86Z"/><path class="cls-4" d="M1603.4,393.28h-.14a1.63,1.63,0,0,1-1.49-1.75l2.41-30.24a1.68,1.68,0,0,1,1.76-1.5,1.62,1.62,0,0,1,1.49,1.76L1605,391.78A1.63,1.63,0,0,1,1603.4,393.28Z"/><path class="cls-4" d="M1181,1431.92a1.61,1.61,0,0,1-1-.31l-22.63-16.09a1.63,1.63,0,0,1-.39-2.28,1.65,1.65,0,0,1,2.28-.38l22.63,16.1a1.63,1.63,0,0,1-.94,3Z"/><path class="cls-4" d="M8.69,367.57a1.6,1.6,0,0,1-.78-.21,1.63,1.63,0,0,1-.65-2.21l10.89-20A1.63,1.63,0,1,1,21,346.75l-10.89,20A1.61,1.61,0,0,1,8.69,367.57Z"/><path class="cls-4" d="M646.34,149.74a1.62,1.62,0,0,1-1.57-1.22l-8.7-32.72a1.63,1.63,0,0,1,3.16-.83l8.69,32.72a1.63,1.63,0,0,1-1.16,2A1.52,1.52,0,0,1,646.34,149.74Z"/><path class="cls-4" d="M1236.82,1121.62a1.64,1.64,0,0,1-1.45-.88l-33.87-64.65a1.64,1.64,0,1,1,2.9-1.52l33.87,64.65a1.65,1.65,0,0,1-.69,2.21A1.59,1.59,0,0,1,1236.82,1121.62Z"/><path class="cls-4" d="M710,452.21a1.63,1.63,0,0,1-.75-3.08l31.84-16.29a1.65,1.65,0,0,1,2.2.71,1.64,1.64,0,0,1-.71,2.2L710.71,452A1.65,1.65,0,0,1,710,452.21Z"/><path class="cls-4" d="M1022.68,1283.61a1.63,1.63,0,0,1-1.38-.76l-37.6-59.19a1.63,1.63,0,0,1,2.76-1.75l37.6,59.19a1.65,1.65,0,0,1-.5,2.26A1.68,1.68,0,0,1,1022.68,1283.61Z"/><path class="cls-4" d="M880.91,1359.31a1.57,1.57,0,0,1-.81-.22,1.62,1.62,0,0,1-.61-2.22l43.68-77a1.63,1.63,0,1,1,2.84,1.61l-43.69,77A1.63,1.63,0,0,1,880.91,1359.31Z"/><path class="cls-4" d="M1160,691.59a1.62,1.62,0,0,1-1.44-.86,1.63,1.63,0,0,1,.66-2.21l74.3-40a1.63,1.63,0,1,1,1.55,2.87l-74.3,40A1.65,1.65,0,0,1,1160,691.59Z"/><path class="cls-4" d="M524.82,124.84a1.64,1.64,0,0,1-1.47-.91L497,70.64a1.63,1.63,0,0,1,2.93-1.45l26.37,53.3a1.63,1.63,0,0,1-.74,2.18A1.55,1.55,0,0,1,524.82,124.84Z"/><path class="cls-4" d="M908.71,1614.89a1.71,1.71,0,0,1-.76-.19l-67-35.43a1.63,1.63,0,1,1,1.52-2.89l67,35.43a1.63,1.63,0,0,1,.69,2.2A1.65,1.65,0,0,1,908.71,1614.89Z"/><path class="cls-4" d="M686,1450.11a1.62,1.62,0,0,1-1.52-2.23l9-22.75a1.63,1.63,0,1,1,3,1.2l-9,22.75A1.62,1.62,0,0,1,686,1450.11Z"/><path class="cls-4" d="M293.6,415.33a2.2,2.2,0,0,1-.44-.05,1.64,1.64,0,0,1-1.14-2l11.37-41.17a1.63,1.63,0,0,1,3.15.87l-11.37,41.17A1.62,1.62,0,0,1,293.6,415.33Z"/><path class="cls-4" d="M1790.34,1079.91a1.6,1.6,0,0,1-.79-.2L1762.9,1065a1.63,1.63,0,0,1,1.58-2.85l26.65,14.72a1.63,1.63,0,0,1-.79,3.06Z"/><path class="cls-4" d="M1345,121.55a1.63,1.63,0,0,1-1.23-2.7l16.48-19.07a1.63,1.63,0,1,1,2.46,2.13L1346.19,121A1.59,1.59,0,0,1,1345,121.55Z"/><path class="cls-4" d="M1600,1420.12a1.62,1.62,0,0,1-.61-.12l-25.06-10.14a1.63,1.63,0,0,1,1.22-3l25.06,10.14a1.64,1.64,0,0,1-.61,3.15Z"/><path class="cls-4" d="M680.34,1683.21a1.63,1.63,0,0,1-1.63-1.54l-2.46-46.25a1.63,1.63,0,0,1,3.26-.18l2.46,46.25a1.63,1.63,0,0,1-1.54,1.72Z"/><path class="cls-4" d="M1278.85,732.08a1.83,1.83,0,0,1-.4-.05l-20.77-5.26a1.63,1.63,0,0,1,.8-3.16l20.77,5.25a1.64,1.64,0,0,1-.4,3.22Z"/><path class="cls-4" d="M404.16,931.76a1.63,1.63,0,0,1-.18-3.25l125.71-14.06a1.67,1.67,0,0,1,1.8,1.44,1.63,1.63,0,0,1-1.44,1.81l-125.7,14Z"/><path class="cls-4" d="M54.22,1475.94a1.58,1.58,0,0,1-.82-.22l-41.68-24.2a1.64,1.64,0,0,1,1.64-2.83L55,1472.89a1.64,1.64,0,0,1-.82,3Z"/><path class="cls-4" d="M505,831.25a1.63,1.63,0,0,1-1-3L541.76,801a1.63,1.63,0,1,1,1.91,2.65L505.9,831A1.67,1.67,0,0,1,505,831.25Z"/><path class="cls-4" d="M310.05,1128.29a1.31,1.31,0,0,1-.39,0,1.62,1.62,0,0,1-1.19-2l22.13-89.1a1.65,1.65,0,0,1,2-1.19,1.63,1.63,0,0,1,1.19,2l-22.13,89.09A1.65,1.65,0,0,1,310.05,1128.29Z"/><path class="cls-4" d="M1782.32,897.61a1.64,1.64,0,0,1-.77-3.08L1802,883.69a1.63,1.63,0,0,1,1.53,2.88l-20.46,10.84A1.6,1.6,0,0,1,1782.32,897.61Z"/><path class="cls-4" d="M764.14,1292.09a1.63,1.63,0,0,1-.9-3l94.88-62.48a1.64,1.64,0,1,1,1.8,2.73L765,1291.82A1.66,1.66,0,0,1,764.14,1292.09Z"/><path class="cls-4" d="M157.5,918a26.38,26.38,0,0,1-14-4,1.63,1.63,0,0,1,1.73-2.77,23.23,23.23,0,1,0,24.63-39.39,1.63,1.63,0,1,1,1.73-2.76A26.48,26.48,0,0,1,157.5,918Z"/><path class="cls-4" d="M1330.65,639.59A19.86,19.86,0,0,1,1311,622.14a1.63,1.63,0,1,1,3.24-.39,16.56,16.56,0,0,0,32.89-4,1.63,1.63,0,1,1,3.24-.39,19.88,19.88,0,0,1-19.7,22.21Z"/><path class="cls-4" d="M339,1312.81a1.64,1.64,0,0,1-1.62-1.42,16,16,0,0,1,13.78-17.92,16,16,0,0,1,17.92,13.78,1.63,1.63,0,1,1-3.24.42,12.72,12.72,0,0,0-25.22,3.3,1.63,1.63,0,0,1-1.41,1.83Z"/><path class="cls-4" d="M808.36,1071.29a12.34,12.34,0,0,1-.4-24.67,1.53,1.53,0,0,1,1.68,1.58,1.64,1.64,0,0,1-1.58,1.69,9.07,9.07,0,0,0-8.76,9.37,9.22,9.22,0,0,0,9.37,8.76,1.56,1.56,0,0,1,1.69,1.58,1.64,1.64,0,0,1-1.58,1.69Z"/><path class="cls-4" d="M968.87,1705.45a1.63,1.63,0,0,1-.84-3,16.83,16.83,0,1,0-17.34-28.85,1.63,1.63,0,0,1-1.68-2.8,20.1,20.1,0,0,1,20.7,34.45A1.74,1.74,0,0,1,968.87,1705.45Z"/><path class="cls-4" d="M230.38,1668.32a1.63,1.63,0,0,1-1.57-1.19,44.3,44.3,0,0,1,85.37-23.67,1.63,1.63,0,0,1-1.14,2,1.61,1.61,0,0,1-2-1.13A41,41,0,1,0,232,1666.26a1.62,1.62,0,0,1-1.14,2A1.34,1.34,0,0,1,230.38,1668.32Z"/><path class="cls-4" d="M1268.4,1580.84a1.67,1.67,0,0,1-.31,0,37.58,37.58,0,0,1,14-73.85,1.63,1.63,0,0,1-.61,3.21,34.31,34.31,0,0,0-12.74,67.43,1.63,1.63,0,0,1-.3,3.23Z"/><path class="cls-4" d="M1284.47,557q-.87,0-1.74-.06a24.41,24.41,0,0,1-16.83-8.39,1.63,1.63,0,1,1,2.46-2.14,21.3,21.3,0,0,0,32.16-28,1.63,1.63,0,1,1,2.46-2.15A24.57,24.57,0,0,1,1284.47,557Z"/><path class="cls-4" d="M369.65,726.14c-.3,0-.61,0-.91,0a10.73,10.73,0,0,1-7.36-3.79,1.64,1.64,0,0,1,2.5-2.11,7.54,7.54,0,1,0,11.51-9.75,1.63,1.63,0,0,1,2.49-2.11,10.81,10.81,0,0,1-8.23,17.8Z"/><path class="cls-4" d="M580.46,1585.07a39.38,39.38,0,0,1-34.32-20,1.63,1.63,0,1,1,2.84-1.6,36.08,36.08,0,0,0,62.83-35.5,1.63,1.63,0,0,1,2.85-1.6,39.34,39.34,0,0,1-34.2,58.69Z"/><path class="cls-4" d="M189.29,1503.47a1.64,1.64,0,0,1-.54-3.18,12,12,0,1,0-7.84-22.64,1.63,1.63,0,0,1-1.06-3.09,15.25,15.25,0,0,1,10,28.82A1.69,1.69,0,0,1,189.29,1503.47Z"/><path class="cls-4" d="M755.82,42.88A45.77,45.77,0,0,1,710.13-1.66a1.64,1.64,0,0,1,1.59-1.67,1.62,1.62,0,0,1,1.67,1.59A42.38,42.38,0,0,0,757,39.6a42.16,42.16,0,0,0,29.69-13.21A42.21,42.21,0,0,0,798.29-3.95a1.62,1.62,0,0,1,1.59-1.67A1.59,1.59,0,0,1,801.55-4,45.42,45.42,0,0,1,789,28.64a45.42,45.42,0,0,1-32,14.23Z"/><path class="cls-4" d="M410.75,1744.62a1.63,1.63,0,0,1-1.31-.65A39.25,39.25,0,1,1,472,1696.56a1.63,1.63,0,0,1-2.6,2A36,36,0,1,0,412.05,1742a1.64,1.64,0,0,1-1.3,2.62Z"/><path class="cls-4" d="M1514.88,152.62a15.36,15.36,0,0,1-8.19-28.37,1.63,1.63,0,1,1,1.74,2.76,12.1,12.1,0,0,0,12.86,20.5,1.63,1.63,0,1,1,1.73,2.76A15.25,15.25,0,0,1,1514.88,152.62Z"/><path class="cls-4" d="M965,1413.19a1.63,1.63,0,0,1-1.58-1.23,29.65,29.65,0,0,1,57.41-14.84,1.63,1.63,0,0,1-3.16.82,26.39,26.39,0,1,0-51.09,13.21,1.64,1.64,0,0,1-1.17,2A2,2,0,0,1,965,1413.19Z"/><path class="cls-4" d="M917.59,1074.54a1.63,1.63,0,0,1-.76-3.07A14.89,14.89,0,1,0,903,1045.11a1.63,1.63,0,0,1-1.52-2.89,18.14,18.14,0,1,1,16.87,32.13A1.58,1.58,0,0,1,917.59,1074.54Z"/><path class="cls-4" d="M46.86,858.31a32.84,32.84,0,0,1-18-60.36,1.63,1.63,0,1,1,1.78,2.74A29.59,29.59,0,1,0,63,850.26,1.63,1.63,0,0,1,64.75,853,32.68,32.68,0,0,1,46.86,858.31Z"/><path class="cls-4" d="M950.37,967.2a1.63,1.63,0,0,1-1-2.9,29.3,29.3,0,0,0-36.78-45.61,1.64,1.64,0,1,1-2.05-2.55,32.56,32.56,0,1,1,40.87,50.7A1.63,1.63,0,0,1,950.37,967.2Z"/><path class="cls-4" d="M495.12,1202.82a14.34,14.34,0,0,1-3.17-.36,14.18,14.18,0,0,1-4.4-25.83,1.63,1.63,0,0,1,1.74,2.76,10.91,10.91,0,1,0,11.62,18.48,1.63,1.63,0,0,1,1.74,2.76A14.1,14.1,0,0,1,495.12,1202.82Z"/><path class="cls-4" d="M1632.78,728.72a1.54,1.54,0,0,1-.56-.1,50,50,0,0,1,34-94.11,1.63,1.63,0,1,1-1.11,3.06,46.78,46.78,0,0,0-31.83,88,1.63,1.63,0,0,1-.55,3.17Z"/><path class="cls-4" d="M1514.68,285.06a15.89,15.89,0,0,1-15-21.21,1.63,1.63,0,0,1,3.07,1.09,12.61,12.61,0,1,0,23.76,8.47,1.63,1.63,0,1,1,3.07,1.09,15.75,15.75,0,0,1-8.14,9A15.92,15.92,0,0,1,1514.68,285.06Z"/><path class="cls-4" d="M1754.43,1545.23a44.62,44.62,0,0,1-43.89-37.32,1.63,1.63,0,0,1,1.34-1.88,1.61,1.61,0,0,1,1.88,1.34,41.32,41.32,0,1,0,81.53-13.49,1.63,1.63,0,0,1,1.34-1.87,1.6,1.6,0,0,1,1.88,1.34,44.57,44.57,0,0,1-36.71,51.27A45.9,45.9,0,0,1,1754.43,1545.23Z"/><path class="cls-4" d="M700,249.4a10.54,10.54,0,0,1-3.78-.71,1.64,1.64,0,0,1,1.18-3.05,7.26,7.26,0,1,0,5.24-13.54,1.64,1.64,0,1,1,1.18-3A10.53,10.53,0,0,1,700,249.4Z"/><path class="cls-4" d="M1795.23,144.72l-.23,0a51.3,51.3,0,0,1,14-101.65,1.64,1.64,0,0,1-.45,3.24,48,48,0,1,0-13.09,95.18,1.63,1.63,0,0,1-.22,3.25Z"/><path class="cls-4" d="M636.29,313.05c-.4,0-.8,0-1.21,0a16.73,16.73,0,0,1-9.77-29.33,1.63,1.63,0,0,1,2.14,2.47,13.46,13.46,0,0,0,7.86,23.6,13.29,13.29,0,0,0,9.78-3.26,1.63,1.63,0,0,1,2.14,2.47A16.61,16.61,0,0,1,636.29,313.05Z"/><path class="cls-4" d="M85.78,1619a1.64,1.64,0,0,1-.32-3.24,41.51,41.51,0,1,0-16.33-81.39,1.63,1.63,0,1,1-.64-3.2,44.77,44.77,0,1,1,17.62,87.79A1.24,1.24,0,0,1,85.78,1619Z"/><path class="cls-4" d="M1683.28,1809.55a1.61,1.61,0,0,1-1.31-.67,1.63,1.63,0,0,1,.35-2.28,46,46,0,0,0-54.33-74.14,1.63,1.63,0,1,1-1.94-2.63,49.22,49.22,0,1,1,58.2,79.4A1.59,1.59,0,0,1,1683.28,1809.55Z"/><path class="cls-4" d="M1506.94,720.65a11.55,11.55,0,0,1-7.49-2.74,1.63,1.63,0,0,1,2.1-2.5,8.41,8.41,0,0,0,10.83-12.86,1.63,1.63,0,0,1,2.1-2.5,11.67,11.67,0,0,1-6.52,20.56C1507.62,720.64,1507.28,720.65,1506.94,720.65Z"/><path class="cls-4" d="M1607.1,1333H1607a54.94,54.94,0,0,1,9.58-109.46,1.64,1.64,0,0,1-.29,3.26,51.67,51.67,0,1,0-9,103,1.63,1.63,0,0,1-.14,3.26Z"/><path class="cls-4" d="M1160,861.25a1.64,1.64,0,0,1-1.63-1.51,54.41,54.41,0,1,1,108.53-8,1.63,1.63,0,0,1-1.5,1.75,1.65,1.65,0,0,1-1.75-1.51,51.15,51.15,0,0,0-102,7.56,1.63,1.63,0,0,1-1.51,1.75Z"/><path class="cls-4" d="M1482,1142.09a15.25,15.25,0,0,1-8.82-2.8,1.64,1.64,0,0,1,1.89-2.67,12,12,0,0,0,13.89-19.61,1.63,1.63,0,0,1-.39-2.28,1.66,1.66,0,0,1,2.28-.39,15.28,15.28,0,0,1-8.85,27.75Z"/><path class="cls-4" d="M155.1,1007.31a1.54,1.54,0,0,1-.66-.14,1.62,1.62,0,0,1-.83-2.15,9.38,9.38,0,0,0-17.13-7.64,1.63,1.63,0,1,1-3-1.33,12.64,12.64,0,0,1,23.35.62,12.52,12.52,0,0,1-.26,9.67A1.62,1.62,0,0,1,155.1,1007.31Z"/><path class="cls-4" d="M70.38,1162.56a1.63,1.63,0,0,1-.7-3.11,47.54,47.54,0,1,0-40.8-85.89,1.63,1.63,0,1,1-1.41-3,50.81,50.81,0,1,1,43.61,91.79A1.56,1.56,0,0,1,70.38,1162.56Z"/><path class="cls-4" d="M1030.63,921.82a12.79,12.79,0,0,1-3.11-.38,13.08,13.08,0,0,1-9.59-15.8,1.65,1.65,0,0,1,2-1.2,1.63,1.63,0,0,1,1.19,2,9.84,9.84,0,0,0,7.2,11.86,9.85,9.85,0,0,0,11.86-7.2,1.63,1.63,0,1,1,3.17.78A13.1,13.1,0,0,1,1030.63,921.82Z"/><path class="cls-4" d="M561.68,1078.69a40.64,40.64,0,0,1-16.79-3.65,1.63,1.63,0,1,1,1.34-3,37.54,37.54,0,0,0,30.94-68.4,1.63,1.63,0,1,1,1.34-3,40.82,40.82,0,0,1-16.83,78Z"/><path class="cls-4" d="M252.9,752.69a1.67,1.67,0,0,1-1.12-.44,26.08,26.08,0,1,1,35.63-38.09,1.63,1.63,0,1,1-2.23,2.38A22.82,22.82,0,1,0,254,749.87a1.63,1.63,0,0,1-1.11,2.82Z"/><path class="cls-4" d="M609.15,584a40.35,40.35,0,0,1-4.44-80.44,1.69,1.69,0,0,1,1.8,1.44,1.63,1.63,0,0,1-1.44,1.81,37.08,37.08,0,1,0,8.33,73.69,1.66,1.66,0,0,1,1.8,1.44,1.64,1.64,0,0,1-1.44,1.81A42,42,0,0,1,609.15,584Z"/><path class="cls-4" d="M1793.38,1196.77a13.38,13.38,0,0,1-1.54-.09,1.63,1.63,0,0,1,.41-3.24,8.9,8.9,0,0,0,2.25-17.65,1.63,1.63,0,1,1,.4-3.24,12.16,12.16,0,0,1-1.52,24.22Z"/><path class="cls-4" d="M1092.38,1216.84a18,18,0,0,1-5.26-.8,1.62,1.62,0,0,1-1.08-2,1.61,1.61,0,0,1,2-1.08,14.6,14.6,0,0,0,8.58-27.91,1.64,1.64,0,0,1-1.08-2,1.6,1.6,0,0,1,2-1.08,17.87,17.87,0,0,1-5.23,34.95Z"/><path class="cls-4" d="M1617.19,1514.76a13.67,13.67,0,0,1-1.42-.08,12.82,12.82,0,0,1-6.63-22.74,1.63,1.63,0,1,1,2,2.54,9.56,9.56,0,0,0,12,14.91,1.63,1.63,0,1,1,2,2.54A12.67,12.67,0,0,1,1617.19,1514.76Z"/><path class="cls-4" d="M1241.08,985.61A43,43,0,0,1,1206,918.05a1.63,1.63,0,1,1,2.68,1.86,39.68,39.68,0,1,0,65.06,45.46,1.65,1.65,0,0,1,2.28-.4,1.62,1.62,0,0,1,.4,2.27,42.68,42.68,0,0,1-27.7,17.7A43.54,43.54,0,0,1,1241.08,985.61Z"/><path class="cls-4" d="M925.8,1495.81A47.64,47.64,0,0,1,884.29,1425a1.63,1.63,0,1,1,2.85,1.59,44.35,44.35,0,1,0,77.46,43.21,1.63,1.63,0,0,1,2.85,1.59A47.28,47.28,0,0,1,938.87,1494,48,48,0,0,1,925.8,1495.81Z"/><path class="cls-4" d="M1402.89,792.63a52.13,52.13,0,0,1-43-81.47,1.63,1.63,0,0,1,2.7,1.84,48.87,48.87,0,0,0,80.78,55,1.63,1.63,0,0,1,2.69,1.83A52.1,52.1,0,0,1,1402.89,792.63Z"/><path class="cls-4" d="M153.93,24.25a23.45,23.45,0,0,1-9.45-2A23.45,23.45,0,0,1,132,9.23a23.42,23.42,0,0,1,.37-18.06,1.64,1.64,0,0,1,2.15-.84,1.63,1.63,0,0,1,.84,2.15A20.21,20.21,0,0,0,135,8.05a20.22,20.22,0,0,0,10.78,11.22,20.16,20.16,0,0,0,15.57.32A20.15,20.15,0,0,0,172.58,8.81,1.66,1.66,0,0,1,174.74,8a1.64,1.64,0,0,1,.83,2.15A23.62,23.62,0,0,1,153.93,24.25Z"/><path class="cls-4" d="M748.22,1152.13a41.36,41.36,0,0,1-20.73-77.2,1.63,1.63,0,1,1,1.63,2.83,38.1,38.1,0,0,0,38.06,66,1.63,1.63,0,0,1,1.63,2.83A41.14,41.14,0,0,1,748.22,1152.13Z"/><path class="cls-4" d="M470.92,1811a2.33,2.33,0,0,1-1.63-1.91,31.29,31.29,0,1,1,62.52-2.67,1.46,1.46,0,0,1-1.56,1.58h-.07a1.45,1.45,0,0,1-1.63-1.44,28,28,0,1,0-56,2.39,2.31,2.31,0,0,1-1.57,2Z"/><path class="cls-4" d="M1389.38,1083.27a1.62,1.62,0,0,1-1.29-.62,1.65,1.65,0,0,1,.28-2.3,45.45,45.45,0,0,0-55.85-71.71,1.63,1.63,0,1,1-2-2.57,48.71,48.71,0,1,1,59.87,76.86A1.63,1.63,0,0,1,1389.38,1083.27Z"/><path class="cls-4" d="M1700.78,1180.52a1.62,1.62,0,0,1-1.09-.42,16.8,16.8,0,0,1,22.4-25,1.63,1.63,0,1,1-2.17,2.44,13.54,13.54,0,1,0-18.06,20.18,1.63,1.63,0,0,1-1.08,2.85Z"/><path class="cls-4" d="M1345.3,428a10.69,10.69,0,0,1-10.21-7.57,1.63,1.63,0,1,1,3.11-1,7.44,7.44,0,0,0,14.23-4.37,1.63,1.63,0,0,1,3.12-1A10.73,10.73,0,0,1,1345.3,428Z"/><path class="cls-4" d="M268,1273.6a1.67,1.67,0,0,1-.95-.3,1.65,1.65,0,0,1-.39-2.28,23.25,23.25,0,1,0-38-26.87,1.64,1.64,0,0,1-2.67-1.89,26.53,26.53,0,1,1,43.3,30.65A1.63,1.63,0,0,1,268,1273.6Z"/><path class="cls-4" d="M1434.38,1385.66a1.62,1.62,0,0,1-1.48-1,27.3,27.3,0,1,1,49.55-23,1.63,1.63,0,1,1-3,1.37,24,24,0,1,0-43.63,20.21,1.64,1.64,0,0,1-.79,2.17A1.68,1.68,0,0,1,1434.38,1385.66Z"/><path class="cls-4" d="M855.68,1157.16a13.54,13.54,0,0,1-11.77-6.83,13.52,13.52,0,0,1,5.06-18.44,1.63,1.63,0,1,1,1.62,2.83,10.26,10.26,0,1,0,10.15,17.83,1.63,1.63,0,0,1,1.61,2.84A13.44,13.44,0,0,1,855.68,1157.16Z"/><path class="cls-4" d="M898.55,500a12.69,12.69,0,0,1-3.44-.48A12.51,12.51,0,0,1,886.49,484a1.63,1.63,0,0,1,3.14.89A9.25,9.25,0,0,0,896,496.33,9.25,9.25,0,0,0,907.43,490a1.63,1.63,0,0,1,2-1.13,1.64,1.64,0,0,1,1.13,2,12.55,12.55,0,0,1-12,9.1Z"/><path class="cls-4" d="M1350.61,1291.22a14.37,14.37,0,0,1-7.93-2.37,14.53,14.53,0,0,1-4.19-20.1,1.63,1.63,0,0,1,2.73,1.79,11.25,11.25,0,0,0,18.83,12.33,1.63,1.63,0,0,1,2.73,1.79A14.51,14.51,0,0,1,1350.61,1291.22Z"/><path class="cls-4" d="M981.12,650.48a39,39,0,0,1-26.19-67.85,1.64,1.64,0,1,1,2.2,2.42,35.71,35.71,0,1,0,48,52.94,1.63,1.63,0,0,1,2.19,2.42A38.84,38.84,0,0,1,981.12,650.48Z"/><path class="cls-4" d="M222,1387h-.2a1.64,1.64,0,0,1-1.6-1.66,1.68,1.68,0,0,1,1.66-1.6,7.69,7.69,0,0,0,7.76-8.88,7.09,7.09,0,0,0-.9-2.63,7.74,7.74,0,0,0-6.57-3.9,1.62,1.62,0,0,1-1.6-1.66,1.71,1.71,0,0,1,1.66-1.6A11,11,0,0,1,233,1376.23,11,11,0,0,1,222,1387Z"/><path class="cls-4" d="M303.85,502a47.15,47.15,0,0,1-44.13-30.57,1.63,1.63,0,1,1,3-1.14,43.81,43.81,0,1,0,82.06-30.72,1.63,1.63,0,1,1,3.06-1.14,47.07,47.07,0,0,1-44,63.57Z"/><path class="cls-4" d="M427.6,602.22a31.48,31.48,0,0,1-31-26.65,1.63,1.63,0,1,1,3.23-.5,28.2,28.2,0,1,0,55.74-8.63,1.62,1.62,0,0,1,1.36-1.86,1.66,1.66,0,0,1,1.87,1.36,31.47,31.47,0,0,1-26.29,35.91A32.17,32.17,0,0,1,427.6,602.22Z"/><path class="cls-4" d="M1435.24,1582a13.08,13.08,0,0,1-8.36-3,1.63,1.63,0,1,1,2.07-2.51,10,10,0,0,0,7.22,2.22,9.87,9.87,0,0,0,5.37-17.43,1.64,1.64,0,0,1-.22-2.3,1.62,1.62,0,0,1,2.3-.21,13.13,13.13,0,0,1-8.38,23.24Z"/><path class="cls-4" d="M1615.92,142.77a18.17,18.17,0,0,1-2.32-.14,1.62,1.62,0,0,1-1.42-1.81,1.66,1.66,0,0,1,1.82-1.43,15.56,15.56,0,0,0,3.76-30.9,1.64,1.64,0,0,1-1.43-1.82,1.68,1.68,0,0,1,1.82-1.42,18.83,18.83,0,0,1-2.23,37.52Z"/><path class="cls-4" d="M310.5,1736.3a11.31,11.31,0,0,1-7.73-19.58,1.65,1.65,0,0,1,2.31.08,1.63,1.63,0,0,1-.08,2.31,8,8,0,0,0,11,11.76,1.63,1.63,0,0,1,2.23,2.39A11.29,11.29,0,0,1,310.5,1736.3Z"/><path class="cls-4" d="M666.85,838.85a1.74,1.74,0,0,1-.66-.14,1.64,1.64,0,0,1-.84-2.15A17.66,17.66,0,1,0,633,822.37a1.63,1.63,0,1,1-3-1.31,20.92,20.92,0,1,1,38.32,16.81A1.62,1.62,0,0,1,666.85,838.85Z"/><path class="cls-4" d="M8.88,1333.82a1.63,1.63,0,0,1-.18-3.25A45.75,45.75,0,0,0,49,1280.08a45.43,45.43,0,0,0-16.89-30.62,45.37,45.37,0,0,0-33.6-9.7,1.64,1.64,0,0,1-1.8-1.44,1.62,1.62,0,0,1,1.44-1.8,48.69,48.69,0,0,1,36,10.39,48.6,48.6,0,0,1,18.1,32.81,49,49,0,0,1-43.2,54.09Z"/><path class="cls-4" d="M790.81,303.79a10.67,10.67,0,0,1-4.73-1.12,1.63,1.63,0,1,1,1.46-2.92,7.34,7.34,0,0,0,6.56-13.14,1.63,1.63,0,1,1,1.46-2.92,10.61,10.61,0,0,1-4.75,20.1Z"/><path class="cls-4" d="M1789.8,1304.56a1.68,1.68,0,0,1-1-.36,12,12,0,0,1,15.13-18.52,1.63,1.63,0,0,1-2.06,2.53,8.69,8.69,0,1,0-11,13.46,1.63,1.63,0,0,1-1,2.89Z"/><path class="cls-4" d="M241.53,156.64a1.64,1.64,0,0,1-1.57-1.2,43.45,43.45,0,0,1,83.76-23.16,1.63,1.63,0,0,1-1.14,2,1.61,1.61,0,0,1-2-1.14,40.19,40.19,0,0,0-77.48,21.42,1.62,1.62,0,0,1-1.13,2A1.67,1.67,0,0,1,241.53,156.64Z"/><path class="cls-4" d="M1136.18,1598.68a12.34,12.34,0,0,1-12.17-10.54,1.63,1.63,0,0,1,3.23-.47,9.07,9.07,0,0,0,17.94-2.63,1.63,1.63,0,0,1,1.38-1.85,1.65,1.65,0,0,1,1.85,1.38,12.33,12.33,0,0,1-12.23,14.11Z"/><path class="cls-4" d="M968.13,155.42a16.36,16.36,0,0,1-6.72-1.44,1.63,1.63,0,0,1,1.34-3,13.18,13.18,0,0,0,10.82-24,1.63,1.63,0,1,1,1.34-3,16.44,16.44,0,0,1-6.78,31.43Z"/><path class="cls-4" d="M544.84,1736.31a1.63,1.63,0,0,1-.3-3.24,38.94,38.94,0,0,0-14.6-76.5,1.63,1.63,0,0,1-.61-3.21,42.21,42.21,0,1,1,15.82,82.92A1.63,1.63,0,0,1,544.84,1736.31Z"/><path class="cls-4" d="M374.8,1806.71a1.59,1.59,0,0,1-.64-.13,10.22,10.22,0,0,1,8-18.8,1.64,1.64,0,0,1-1.28,3,6.95,6.95,0,1,0-5.44,12.79,1.63,1.63,0,0,1-.64,3.13Z"/><path class="cls-4" d="M82.08,254a12.7,12.7,0,0,1-7.33-2.32,1.63,1.63,0,0,1-.41-2.27,1.65,1.65,0,0,1,2.28-.4,9.61,9.61,0,0,0,11-15.78,1.62,1.62,0,0,1-.41-2.27,1.64,1.64,0,0,1,2.27-.41,12.89,12.89,0,0,1,3.21,17.92,12.73,12.73,0,0,1-8.29,5.32A12.86,12.86,0,0,1,82.08,254Z"/><path class="cls-4" d="M574.9,1148a1.68,1.68,0,0,1-.89-.26,1.63,1.63,0,0,1-.48-2.26,14.25,14.25,0,0,0-23.85-15.61,1.63,1.63,0,0,1-2.74-1.78,17.52,17.52,0,1,1,29.33,19.17A1.65,1.65,0,0,1,574.9,1148Z"/><path class="cls-4" d="M1351,1598.61a1.51,1.51,0,0,1-.59-.11,1.62,1.62,0,0,1-.93-2.11,8,8,0,0,0-15-5.83,1.63,1.63,0,1,1-3-1.19,11.29,11.29,0,0,1,21,8.2A1.63,1.63,0,0,1,1351,1598.61Z"/><path class="cls-4" d="M28.35,37h0a14.39,14.39,0,0,1,.31-28.78H29a1.62,1.62,0,0,1,1.42,1,1.65,1.65,0,0,1-1.52,2.26h-.27A11.15,11.15,0,0,0,17.49,22.37a11.33,11.33,0,0,0,7.4,10.81,10.78,10.78,0,0,0,3.53.56A1.63,1.63,0,0,1,28.35,37Z"/><path class="cls-4" d="M416,139.49a12.21,12.21,0,0,1-2.4-.24A11.73,11.73,0,0,1,409.5,118a1.63,1.63,0,1,1,1.79,2.73,8.46,8.46,0,0,0,9.3,14.13,1.64,1.64,0,0,1,1.8,2.73A11.69,11.69,0,0,1,416,139.49Z"/><path class="cls-4" d="M1734.45,508.86a44.52,44.52,0,0,1-2-89,1.54,1.54,0,0,1,1.7,1.55,1.63,1.63,0,0,1-1.55,1.71,41.26,41.26,0,0,0,3.83,82.43,1.59,1.59,0,0,1,1.7,1.55,1.62,1.62,0,0,1-1.55,1.7C1735.84,508.85,1735.14,508.86,1734.45,508.86Z"/><path class="cls-4" d="M1658.68,1634.14a1.63,1.63,0,0,1-.85-.24,18.7,18.7,0,0,1,19.43-32,1.64,1.64,0,0,1,.55,2.25,1.62,1.62,0,0,1-2.24.54,15.43,15.43,0,1,0-16,26.37,1.64,1.64,0,0,1-.85,3Z"/><path class="cls-4" d="M612.2,736.05A45.13,45.13,0,0,1,595.53,649a1.63,1.63,0,1,1,1.21,3,41.86,41.86,0,1,0,30.94,77.79,1.63,1.63,0,1,1,1.2,3A45,45,0,0,1,612.2,736.05Z"/><path class="cls-4" d="M1691.62,289.34a1.76,1.76,0,0,1-1.66-1.63,1.63,1.63,0,0,1,1.63-1.63h0a7.91,7.91,0,0,0,0-15.82,1.63,1.63,0,0,1,0-3.26h0a11.17,11.17,0,0,1,0,22.34Z"/><path class="cls-4" d="M883,1793.26a36.92,36.92,0,0,1-17.39-4.37,1.63,1.63,0,1,1,1.54-2.88,33.82,33.82,0,0,0,31.79-59.7,1.63,1.63,0,0,1,1.54-2.88A37.11,37.11,0,0,1,883,1793.26Z"/><path class="cls-4" d="M681.72,1018.58a48.41,48.41,0,0,1-47.33-38.64,1.63,1.63,0,0,1,3.2-.66,45.06,45.06,0,0,0,88.29-18.06,1.63,1.63,0,1,1,3.2-.65,48.37,48.37,0,0,1-47.36,58Z"/><path class="cls-4" d="M143,1750.38a1.62,1.62,0,0,1-1.11-.43,12.11,12.11,0,1,1,16.42-17.8,1.63,1.63,0,1,1-2.22,2.39,8.9,8.9,0,0,0-6.35-2.33,8.84,8.84,0,0,0-5.63,15.34,1.63,1.63,0,0,1-1.11,2.83Z"/><path class="cls-4" d="M1187.61,1778.66a34,34,0,0,1-31.06-20.27,1.63,1.63,0,1,1,3-1.31,30.66,30.66,0,0,0,56.11-24.72,1.63,1.63,0,0,1,3-1.31,33.95,33.95,0,0,1-31,47.61Z"/><path class="cls-4" d="M536.43,1416.65a1.63,1.63,0,0,1-1.55-1.11,50.48,50.48,0,1,1,95.65-32.33,1.63,1.63,0,1,1-3.09,1A47.22,47.22,0,0,0,538,1414.49a1.63,1.63,0,0,1-1,2.07A1.58,1.58,0,0,1,536.43,1416.65Z"/><path class="cls-4" d="M365,874.16a1.62,1.62,0,0,1-1.43-.84,31.69,31.69,0,0,1,55.55-30.51,1.64,1.64,0,0,1-2.87,1.57,28.42,28.42,0,1,0-49.82,27.37,1.63,1.63,0,0,1-.65,2.21A1.54,1.54,0,0,1,365,874.16Z"/><path class="cls-4" d="M301.08,1495.77a17.44,17.44,0,0,1-17.29-15.44A1.64,1.64,0,1,1,287,1480a14.14,14.14,0,1,0,28.1-3.19,1.63,1.63,0,0,1,3.24-.37,17.41,17.41,0,0,1-15.33,19.26A16.37,16.37,0,0,1,301.08,1495.77Z"/><path class="cls-4" d="M447.74,1040a33.63,33.63,0,0,1-7.37-.82,33.48,33.48,0,0,1-25.36-40,1.63,1.63,0,1,1,3.19.71,30.21,30.21,0,1,0,59,13.19,1.63,1.63,0,1,1,3.19.71A33.51,33.51,0,0,1,447.74,1040Z"/><path class="cls-4" d="M1148.59,186.94a1.49,1.49,0,0,1-.65-.14,22,22,0,1,1,17.73-40.26,1.63,1.63,0,1,1-1.31,3,18.73,18.73,0,1,0-15.11,34.28,1.63,1.63,0,0,1-.66,3.13Z"/><path class="cls-4" d="M1650.9,1005c-1.62,0-3.25-.08-4.89-.23a1.63,1.63,0,0,1-1.47-1.78,1.69,1.69,0,0,1,1.77-1.47,48.2,48.2,0,1,0,9.09-96,1.64,1.64,0,0,1-1.47-1.78,1.68,1.68,0,0,1,1.78-1.48A51.47,51.47,0,0,1,1650.9,1005Z"/><path class="cls-4" d="M1684.6,1355.2a1.63,1.63,0,0,1-1.59-1.28,14.15,14.15,0,1,1,27.65-6,1.63,1.63,0,0,1-3.19.7,10.89,10.89,0,1,0-21.27,4.64,1.63,1.63,0,0,1-1.25,1.94A1.39,1.39,0,0,1,1684.6,1355.2Z"/><path class="cls-4" d="M35.63,498.33a19.53,19.53,0,0,1-4.84-.62,19.1,19.1,0,0,1-13.67-23.29,1.61,1.61,0,0,1,2-1.17,1.62,1.62,0,0,1,1.16,2,15.84,15.84,0,0,0,30.66,8,1.62,1.62,0,0,1,2-1.17,1.64,1.64,0,0,1,1.17,2,19.11,19.11,0,0,1-18.46,14.3Z"/><path class="cls-4" d="M1670.48,32.39a1.23,1.23,0,0,1-.27,0,1.62,1.62,0,0,1-1.34-1.87,17.22,17.22,0,0,0-27.07-16.72A17.07,17.07,0,0,0,1634.88,25a1.63,1.63,0,1,1-3.22-.52A20.48,20.48,0,1,1,1672.09,31,1.64,1.64,0,0,1,1670.48,32.39Z"/><path class="cls-4" d="M592.71,1507.62a1.56,1.56,0,0,1-.78-.2,1.62,1.62,0,0,1-.66-2.21,26.94,26.94,0,0,0-47.38-25.67A1.63,1.63,0,1,1,541,1478a30.21,30.21,0,1,1,53.12,28.78A1.63,1.63,0,0,1,592.71,1507.62Z"/><path class="cls-4" d="M1139.43,1324.44a1.66,1.66,0,0,1-.9-.27,1.64,1.64,0,0,1-.47-2.26,15.57,15.57,0,0,0-26-17.11,1.63,1.63,0,1,1-2.73-1.79,18.83,18.83,0,0,1,31.47,20.69A1.62,1.62,0,0,1,1139.43,1324.44Z"/><path class="cls-4" d="M795,1800a1.63,1.63,0,0,1-.93-3,11.17,11.17,0,1,0-12.68-18.4,1.64,1.64,0,1,1-1.86-2.69,14.44,14.44,0,0,1,16.4,23.77A1.6,1.6,0,0,1,795,1800Z"/><path class="cls-4" d="M1220.17,1269.92a1.63,1.63,0,0,1-.7-3.11,28.29,28.29,0,0,0-24.14-51.17,1.63,1.63,0,0,1-2.18-.77,1.65,1.65,0,0,1,.78-2.18,31.55,31.55,0,1,1,26.93,57.07A1.55,1.55,0,0,1,1220.17,1269.92Z"/><path class="cls-4" d="M794.74,1511.27a1.64,1.64,0,0,1-1.18-2.76,13.84,13.84,0,0,0-20.11-19,1.63,1.63,0,0,1-2.37-2.24,17.1,17.1,0,1,1,24.85,23.5A1.62,1.62,0,0,1,794.74,1511.27Z"/><path class="cls-4" d="M1291.37,317.51a12.11,12.11,0,0,1-5.26-23,1.63,1.63,0,0,1,1.41,2.94,8.84,8.84,0,0,0,7.68,15.93,1.63,1.63,0,1,1,1.42,2.94A12.15,12.15,0,0,1,1291.37,317.51Z"/><path class="cls-4" d="M1699.79,1453.56a1.63,1.63,0,0,1-.71-.16,16.63,16.63,0,1,1,14.41-30,1.63,1.63,0,0,1-1.42,2.94,13.36,13.36,0,1,0-11.57,24.09,1.63,1.63,0,0,1-.71,3.1Z"/><path class="cls-4" d="M1204.48,475.06a1.6,1.6,0,0,1-.89-.27A47.88,47.88,0,1,1,1256,394.66a1.63,1.63,0,1,1-1.78,2.73,44.62,44.62,0,0,0-48.88,74.67,1.63,1.63,0,0,1-.89,3Z"/><path class="cls-4" d="M242.85,922.82a1.63,1.63,0,0,1-.47-3.2l2-.6a1.63,1.63,0,1,1,.93,3.13l-2,.6A1.47,1.47,0,0,1,242.85,922.82Z"/><path class="cls-4" d="M670.34,503.46a1.63,1.63,0,0,1-1.6-1.29l-1.14-5.29a1.63,1.63,0,1,1,3.19-.69l1.14,5.29a1.64,1.64,0,0,1-1.25,1.95Z"/><path class="cls-4" d="M771.5,1641.4a1.59,1.59,0,0,1-1.17-.49l-4.44-4.6a1.63,1.63,0,1,1,2.34-2.27l4.44,4.6a1.62,1.62,0,0,1,0,2.3A1.59,1.59,0,0,1,771.5,1641.4Z"/><path class="cls-4" d="M128.19,1402a1.68,1.68,0,0,1-.69-.15l-5.46-2.57a1.64,1.64,0,0,1,1.39-3l5.46,2.57a1.63,1.63,0,0,1-.7,3.11Z"/><path class="cls-4" d="M246.52,1014.37a1.65,1.65,0,0,1-1.2-.52,1.63,1.63,0,0,1,.08-2.3l1.66-1.55a1.63,1.63,0,1,1,2.23,2.38l-1.66,1.55A1.64,1.64,0,0,1,246.52,1014.37Z"/><path class="cls-4" d="M551.61,269.77a1.64,1.64,0,0,1-1.45-.87l-1-1.88a1.63,1.63,0,0,1,2.89-1.52l1,1.88a1.63,1.63,0,0,1-.68,2.2A1.61,1.61,0,0,1,551.61,269.77Z"/><path class="cls-4" d="M978,311.69a1.63,1.63,0,0,1-.45-3.2l7.14-2a1.63,1.63,0,1,1,.9,3.13l-7.14,2A1.41,1.41,0,0,1,978,311.69Z"/><path class="cls-4" d="M1059.14,108.21a1.61,1.61,0,0,1-1.29-.64l-4.1-5.29a1.63,1.63,0,1,1,2.58-2l4.1,5.29a1.63,1.63,0,0,1-1.29,2.63Z"/><path class="cls-4" d="M713.15,899.15H713l-5.73-.39a1.63,1.63,0,0,1-1.52-1.74,1.68,1.68,0,0,1,1.73-1.52l5.74.39a1.63,1.63,0,0,1-.11,3.26Z"/><path class="cls-4" d="M1061.36,699.55a1.74,1.74,0,0,1-.45-.06l-3.2-.91a1.63,1.63,0,0,1,.88-3.14l3.21.9a1.64,1.64,0,0,1-.44,3.21Z"/><path class="cls-4" d="M814.48,740.85a1.64,1.64,0,0,1-1.62-1.44l-.48-4.15a1.64,1.64,0,1,1,3.25-.37l.48,4.14a1.63,1.63,0,0,1-1.44,1.81Z"/><path class="cls-4" d="M1061.71,1466.64a1.64,1.64,0,0,1-1.52-1l-.73-1.88a1.63,1.63,0,0,1,3-1.19l.73,1.87a1.63,1.63,0,0,1-.92,2.12A1.59,1.59,0,0,1,1061.71,1466.64Z"/><path class="cls-4" d="M1431.6,359.81a1.63,1.63,0,0,1-.93-3l1-.73a1.63,1.63,0,0,1,1.87,2.68l-1,.73A1.65,1.65,0,0,1,1431.6,359.81Z"/><path class="cls-4" d="M1656.72,1272.27a1.63,1.63,0,0,1-.47-3.19l5.2-1.58a1.63,1.63,0,1,1,1,3.12l-5.2,1.58A1.59,1.59,0,0,1,1656.72,1272.27Z"/><path class="cls-4" d="M731.38,132.61a1.61,1.61,0,0,1-1.36-.73l-.89-1.34a1.63,1.63,0,1,1,2.72-1.8l.89,1.34a1.63,1.63,0,0,1-.46,2.26A1.66,1.66,0,0,1,731.38,132.61Z"/><path class="cls-4" d="M127.74,1673.82a1.69,1.69,0,0,1-.84-.23,1.64,1.64,0,0,1-.56-2.24l1.21-2a1.66,1.66,0,0,1,2.25-.56,1.63,1.63,0,0,1,.55,2.24l-1.21,2A1.64,1.64,0,0,1,127.74,1673.82Z"/><path class="cls-4" d="M1438.28,652.68a1.63,1.63,0,0,1-1.47-2.34l.79-1.64a1.63,1.63,0,0,1,2.94,1.42l-.79,1.64A1.64,1.64,0,0,1,1438.28,652.68Z"/><path class="cls-4" d="M1784.74,1443a1.63,1.63,0,0,1-.23-3.25l6.12-.88a1.66,1.66,0,0,1,1.85,1.38,1.63,1.63,0,0,1-1.39,1.85l-6.11.88Z"/><path class="cls-4" d="M905.56,715.29h-.17l-3.87-.39a1.62,1.62,0,0,1-1.46-1.78,1.6,1.6,0,0,1,1.78-1.46l3.88.38a1.63,1.63,0,0,1-.16,3.26Z"/><path class="cls-4" d="M711.54,580.17a1.63,1.63,0,0,1-1.62-1.47l-.61-6.21a1.63,1.63,0,0,1,1.46-1.78,1.68,1.68,0,0,1,1.79,1.46l.61,6.21a1.64,1.64,0,0,1-1.46,1.79Z"/><path class="cls-4" d="M1730.49,1249.34a1.62,1.62,0,0,1-1.44-.87l-2.18-4.1a1.63,1.63,0,1,1,2.88-1.53l2.18,4.1a1.63,1.63,0,0,1-.68,2.21A1.59,1.59,0,0,1,1730.49,1249.34Z"/><path class="cls-4" d="M274,829a1.64,1.64,0,0,1-1.19-.51l-3.3-3.51a1.63,1.63,0,1,1,2.38-2.24l3.3,3.51a1.63,1.63,0,0,1-.07,2.31A1.67,1.67,0,0,1,274,829Z"/><path class="cls-4" d="M1236.56,1354.38a1.63,1.63,0,0,1-.38-3.22l2.5-.6a1.65,1.65,0,0,1,2,1.2,1.63,1.63,0,0,1-1.21,2l-2.5.61A1.72,1.72,0,0,1,1236.56,1354.38Z"/><path class="cls-4" d="M422.19,1120.89a1.63,1.63,0,0,1-.84-3l1.6-1a1.63,1.63,0,0,1,1.68,2.8l-1.6,1A1.64,1.64,0,0,1,422.19,1120.89Z"/><path class="cls-4" d="M1337.24,221.13a1.64,1.64,0,0,1-1.13-.45l-5.55-5.29a1.63,1.63,0,1,1,2.25-2.36l5.55,5.28a1.63,1.63,0,0,1-1.12,2.82Z"/><path class="cls-4" d="M1594.48,1159.2a1.82,1.82,0,0,1-.56-.09l-1.3-.47a1.63,1.63,0,1,1,1.1-3.07l1.31.47a1.63,1.63,0,0,1-.55,3.16Z"/><path class="cls-4" d="M1790.78,234a1.64,1.64,0,0,1-.65-.13l-3.48-1.49a1.63,1.63,0,0,1,1.29-3l3.48,1.49a1.63,1.63,0,0,1-.64,3.13Z"/><path class="cls-4" d="M1638.57,836.11a1.61,1.61,0,0,1-1.1-.43l-2.62-2.42a1.63,1.63,0,0,1-.09-2.3,1.61,1.61,0,0,1,2.3-.09l2.62,2.41a1.63,1.63,0,0,1-1.11,2.83Z"/><path class="cls-4" d="M1535.64,1641.42a1.66,1.66,0,0,1-1.29-.63l-1.55-2a1.64,1.64,0,0,1,2.59-2l1.55,2a1.63,1.63,0,0,1-1.3,2.64Z"/><path class="cls-4" d="M715,359.48l0-5a1.52,1.52,0,0,1,1.52-1.53h0a1.53,1.53,0,0,1,1.53,1.52l0,5a1.52,1.52,0,0,1-1.52,1.53h0A1.53,1.53,0,0,1,715,359.48Z"/><path class="cls-4" d="M462.49,486.74a1.7,1.7,0,0,1-.59-.1l-5.08-2a1.63,1.63,0,0,1,1.17-3.05l5.08,2a1.63,1.63,0,0,1-.58,3.15Z"/><path class="cls-4" d="M1736.15,1672.91a1.57,1.57,0,0,1-.85-.24,1.63,1.63,0,0,1-.54-2.24l1.86-3a1.64,1.64,0,1,1,2.79,1.71l-1.86,3A1.65,1.65,0,0,1,1736.15,1672.91Z"/><path class="cls-4" d="M1025.43,214.77a1.63,1.63,0,0,1-.61-3.14l2.14-.87a1.63,1.63,0,0,1,1.22,3l-2.14.86A1.47,1.47,0,0,1,1025.43,214.77Z"/><path class="cls-4" d="M1094.73,1804.09a1.63,1.63,0,0,1-1.25-2.68l1.68-2a1.66,1.66,0,0,1,2.31-.2,1.64,1.64,0,0,1,.2,2.3l-1.69,2A1.63,1.63,0,0,1,1094.73,1804.09Z"/><path class="cls-4" d="M1322.79,10.23a1.63,1.63,0,0,1-1.3-.64l-1-1.24a1.63,1.63,0,1,1,2.58-2l1,1.24a1.64,1.64,0,0,1-1.29,2.63Z"/><path class="cls-4" d="M1179.79,569.5a1.64,1.64,0,0,1-1.5-1l-1.83-4.2a1.63,1.63,0,0,1,3-1.3l1.83,4.2a1.63,1.63,0,0,1-.85,2.15A1.65,1.65,0,0,1,1179.79,569.5Z"/><path class="cls-4" d="M257.92,8.9a1.63,1.63,0,0,1-1.59-1.25L256,6.4a1.63,1.63,0,1,1,3.17-.76l.3,1.25a1.64,1.64,0,0,1-1.2,2A2.58,2.58,0,0,1,257.92,8.9Z"/><path class="cls-4" d="M987.77,794.79a1.62,1.62,0,0,1-1.09-.42l-5.62-5a1.63,1.63,0,0,1,2.18-2.43l5.62,5a1.63,1.63,0,0,1,.12,2.31A1.6,1.6,0,0,1,987.77,794.79Z"/><path class="cls-4" d="M934.51,1164.33a1.61,1.61,0,0,1-1.19-.52l-1.73-1.86a1.63,1.63,0,1,1,2.39-2.22l1.73,1.86a1.63,1.63,0,0,1-1.2,2.74Z"/><path class="cls-4" d="M1462.24,1247.41a1.63,1.63,0,0,1-.81-3.05l2.25-1.27a1.63,1.63,0,0,1,1.61,2.84l-2.24,1.27A1.61,1.61,0,0,1,1462.24,1247.41Z"/><path class="cls-4" d="M1439,464.71a1.68,1.68,0,0,1-.83-.23,1.64,1.64,0,0,1-.57-2.24l1.5-2.54a1.63,1.63,0,1,1,2.81,1.66l-1.5,2.54A1.64,1.64,0,0,1,1439,464.71Z"/><path class="cls-4" d="M1518,594.51a1.1,1.1,0,0,1-.26,0l-2.44-.39a1.63,1.63,0,1,1,.52-3.22l2.43.39a1.63,1.63,0,0,1-.25,3.24Z"/><path class="cls-4" d="M10,600.74H9.81a1.63,1.63,0,0,1-1.39-1.84l.32-2.34a1.61,1.61,0,0,1,1.83-1.4A1.63,1.63,0,0,1,12,597l-.32,2.34A1.63,1.63,0,0,1,10,600.74Z"/><path class="cls-4" d="M1427.65,25.06a1.63,1.63,0,0,1-.07-3.26l7.15-.32a1.5,1.5,0,0,1,1.7,1.55,1.62,1.62,0,0,1-1.56,1.7l-7.15.33Z"/><path class="cls-4" d="M1801.61,460.88a1.63,1.63,0,0,1-.53-3.18l1.78-.6a1.63,1.63,0,0,1,1.05,3.09l-1.78.61A1.88,1.88,0,0,1,1801.61,460.88Z"/><path class="cls-4" d="M822.48,412.17a1.4,1.4,0,0,1-1.48-1.49l0-6.22a1.43,1.43,0,0,1,1.49-1.48,1.48,1.48,0,0,1,1.47,1.49l0,6.23A1.47,1.47,0,0,1,822.48,412.17Z"/><path class="cls-4" d="M1703.24,194.42a1.63,1.63,0,0,1-1.58-1.23l-1.35-5.31a1.63,1.63,0,1,1,3.16-.8l1.36,5.31a1.63,1.63,0,0,1-1.18,2A1.92,1.92,0,0,1,1703.24,194.42Z"/><path class="cls-4" d="M25.1,1393H25l-1.75-.07a1.64,1.64,0,1,1,.06-3.27l1.75.07a1.67,1.67,0,0,1,1.57,1.15A1.63,1.63,0,0,1,25.1,1393Z"/><path class="cls-4" d="M318.54,944.74a1.67,1.67,0,0,1-.62-.12,1.64,1.64,0,0,1-.88-2.14l.71-1.71a1.63,1.63,0,0,1,3,1.25l-.71,1.71A1.63,1.63,0,0,1,318.54,944.74Z"/><path class="cls-4" d="M1575.26,1695.29a1.63,1.63,0,0,1-.28-3.24l4.18-.75a1.63,1.63,0,1,1,.58,3.21l-4.18.76Z"/><path class="cls-4" d="M430.76,381.38a1.67,1.67,0,0,1-1.05-.38l-1.34-1.12a1.63,1.63,0,1,1,2.08-2.51l1.35,1.12a1.63,1.63,0,0,1-1,2.89Z"/><path class="cls-4" d="M16.25,1653.36h-.1a1.63,1.63,0,0,1-1.53-1.72L15,1645a1.59,1.59,0,0,1,1.73-1.53,1.63,1.63,0,0,1,1.53,1.73l-.4,6.67A1.63,1.63,0,0,1,16.25,1653.36Z"/><path class="cls-4" d="M1702.68,356.07a1.63,1.63,0,0,1-.82-.22l-3.59-2.09a1.63,1.63,0,0,1,1.65-2.82l3.58,2.09a1.63,1.63,0,0,1-.82,3Z"/><path class="cls-4" d="M25.14,705.61H25l-1.66-.18a1.64,1.64,0,0,1,.37-3.25l1.65.19a1.63,1.63,0,0,1-.18,3.25Z"/><path class="cls-4" d="M107.89,1799.33a1.63,1.63,0,0,1-1.29-.63l-.91-1.16a1.64,1.64,0,1,1,2.59-2l.9,1.17a1.63,1.63,0,0,1-1.29,2.63Z"/><path class="cls-4" d="M1666.55,574.59a1.64,1.64,0,0,1-1.35-2.55l3.11-4.59a1.63,1.63,0,1,1,2.7,1.83l-3.11,4.59A1.62,1.62,0,0,1,1666.55,574.59Z"/><path class="cls-4" d="M29.43,1726.88a1.63,1.63,0,0,1-.91-3l1.88-1.26a1.63,1.63,0,1,1,1.83,2.7l-1.89,1.27A1.6,1.6,0,0,1,29.43,1726.88Z"/><path class="cls-4" d="M879.72,350.67a1.64,1.64,0,0,1-1.33-2.59l3.34-4.64a1.61,1.61,0,0,1,2.27-.38,1.64,1.64,0,0,1,.38,2.28L881,350A1.64,1.64,0,0,1,879.72,350.67Z"/><path class="cls-4" d="M732.56,1725.3a1.64,1.64,0,0,1-1.35-2.56l3.3-4.83a1.63,1.63,0,1,1,2.69,1.85l-3.29,4.83A1.64,1.64,0,0,1,732.56,1725.3Z"/><path class="cls-4" d="M1007.9,1019.41a1.41,1.41,0,0,1-.4,0l-3.79-1a1.63,1.63,0,1,1,.8-3.16l3.8,1a1.63,1.63,0,0,1-.41,3.21Z"/><path class="cls-4" d="M1313.21,1073h0l-7.27-.17a1.66,1.66,0,0,1-1.63-1.32,1.64,1.64,0,0,1,1.65-2l7.32.18a1.63,1.63,0,0,1,0,3.26Z"/><path class="cls-4" d="M13.1,1797.49a1.64,1.64,0,0,1-.65-.13l-1.17-.51a1.63,1.63,0,1,1,1.3-3l1.17.51a1.63,1.63,0,0,1-.65,3.13Z"/><path class="cls-4" d="M997.75,13.88a1.63,1.63,0,0,1-.77-3.07l4.59-2.46a1.63,1.63,0,1,1,1.54,2.87l-4.59,2.47A1.65,1.65,0,0,1,997.75,13.88Z"/><path class="cls-4" d="M1563.64,799.4a1.63,1.63,0,0,1-.56-3.16l2.2-.8a1.63,1.63,0,0,1,1.11,3.07l-2.19.79A1.58,1.58,0,0,1,1563.64,799.4Z"/><path class="cls-4" d="M548.62,1275.4a1.63,1.63,0,0,1-.31-3.23l4-.79a1.63,1.63,0,1,1,.62,3.2l-4,.79A1.63,1.63,0,0,1,548.62,1275.4Z"/><path class="cls-4" d="M1241.91,202.55a1.64,1.64,0,0,1-.54-3.18l7.22-2.52a1.63,1.63,0,0,1,1.08,3.08l-7.22,2.52A1.47,1.47,0,0,1,1241.91,202.55Z"/><path class="cls-4" d="M1560.36,896.27a1.63,1.63,0,0,1-1.31-.66l-2.49-3.37a1.63,1.63,0,0,1,2.63-1.94l2.49,3.37a1.63,1.63,0,0,1-.35,2.28A1.66,1.66,0,0,1,1560.36,896.27Z"/><path class="cls-4" d="M1602.85,1796.42a1.9,1.9,0,0,1-.4-.05l-5.26-1.33a1.63,1.63,0,1,1,.8-3.16l5.26,1.33a1.63,1.63,0,0,1-.4,3.21Z"/><path class="cls-4" d="M90.11,613.86a1.63,1.63,0,0,1-1.22-2.72L93,606.59a1.63,1.63,0,1,1,2.43,2.18l-4.06,4.54A1.64,1.64,0,0,1,90.11,613.86Z"/><path class="cls-4" d="M1012.11,1786.84a2.2,2.2,0,0,1-.36,0l-6.66-1.49a1.63,1.63,0,0,1,.71-3.19l6.67,1.49a1.64,1.64,0,0,1-.36,3.23Z"/><path class="cls-4" d="M1500,1460.85a1.63,1.63,0,0,1-1-.34l-3.89-3a1.63,1.63,0,0,1-.3-2.29,1.65,1.65,0,0,1,2.29-.29l3.9,3a1.64,1.64,0,0,1,.29,2.29A1.6,1.6,0,0,1,1500,1460.85Z"/><path class="cls-4" d="M1601,959a1.65,1.65,0,0,1-1-.36l-1.2-1a1.63,1.63,0,1,1,2-2.55l1.2,1a1.63,1.63,0,0,1-1,2.91Z"/><path class="cls-4" d="M1508.26,393.44a1.58,1.58,0,0,1-1.11-.44,1.62,1.62,0,0,1-.08-2.3l5-5.4a1.63,1.63,0,0,1,2.39,2.22l-5,5.4A1.59,1.59,0,0,1,1508.26,393.44Z"/><path class="cls-4" d="M1162.07,1133.71a1.64,1.64,0,0,1-.68-.15l-6.47-2.94a1.63,1.63,0,0,1,1.35-3l6.47,2.94a1.64,1.64,0,0,1,.81,2.16A1.62,1.62,0,0,1,1162.07,1133.71Z"/><path class="cls-4" d="M1382,300.63h-.2a1.64,1.64,0,0,1-1.43-1.81l.79-6.79a1.64,1.64,0,0,1,3.25.38l-.79,6.79A1.64,1.64,0,0,1,1382,300.63Z"/><path class="cls-4" d="M1426.84,196.67a1.62,1.62,0,0,1-1.19-.51l-4.46-4.77a1.63,1.63,0,0,1,2.38-2.23l4.46,4.76a1.63,1.63,0,0,1-.08,2.31A1.58,1.58,0,0,1,1426.84,196.67Z"/><path class="cls-4" d="M1186.81,284.18a1.63,1.63,0,0,1-.32-3.23l1.66-.34a1.64,1.64,0,0,1,1.92,1.29,1.63,1.63,0,0,1-1.28,1.92l-1.66.33A1.73,1.73,0,0,1,1186.81,284.18Z"/><path class="cls-4" d="M374.16,1560.31a1.37,1.37,0,0,1-.4,0l-3.89-1a1.63,1.63,0,1,1,.8-3.16l3.89,1a1.63,1.63,0,0,1-.4,3.21Z"/><path class="cls-4" d="M1366.93,1685.57a1.63,1.63,0,0,1-.52-3.18l1.19-.39a1.61,1.61,0,0,1,2.06,1,1.64,1.64,0,0,1-1,2.07l-1.19.39A1.51,1.51,0,0,1,1366.93,1685.57Z"/><path class="cls-4" d="M524,343.71a1.63,1.63,0,0,1-.14-3.26l5.3-.47a1.64,1.64,0,0,1,.29,3.26l-5.3.46Z"/><path class="cls-4" d="M349.21,338.18a1.59,1.59,0,0,1-.84-.23L341.8,334a1.63,1.63,0,1,1,1.68-2.8l6.56,3.94a1.63,1.63,0,0,1-.83,3Z"/><path class="cls-4" d="M709.58,1799.68a1.63,1.63,0,0,1-1.47-2.34l.87-1.79a1.63,1.63,0,0,1,2.94,1.42l-.87,1.79A1.63,1.63,0,0,1,709.58,1799.68Z"/><path class="cls-4" d="M1793,1376.51l-.33,0a1.64,1.64,0,0,1-1.27-1.93l.31-1.48a1.63,1.63,0,1,1,3.19.66l-.3,1.48A1.63,1.63,0,0,1,1793,1376.51Z"/><path class="cls-4" d="M1000.27,536.33a1.62,1.62,0,0,1-.87-.25L997.7,535a1.63,1.63,0,1,1,1.73-2.77l1.7,1.06a1.62,1.62,0,0,1,.52,2.25A1.64,1.64,0,0,1,1000.27,536.33Z"/><path class="cls-4" d="M334.37,200h-.05a1.57,1.57,0,0,1-1.58-1.63l.12-4.05a1.58,1.58,0,0,1,1.84-1.58,1.63,1.63,0,0,1,1.43,1.68l-.13,4A1.63,1.63,0,0,1,334.37,200Z"/><path class="cls-4" d="M1348.65,900.75a1.42,1.42,0,0,1-.29,0,1.63,1.63,0,0,1-1.32-1.89l1.15-6.56a1.63,1.63,0,0,1,3.21.57l-1.15,6.56A1.63,1.63,0,0,1,1348.65,900.75Z"/><path class="cls-4" d="M1790,985.51a1.65,1.65,0,0,1-1.16-.49,1.63,1.63,0,0,1,0-2.31l3.15-3.09a1.64,1.64,0,0,1,2.31,0,1.62,1.62,0,0,1,0,2.3l-3.15,3.09A1.62,1.62,0,0,1,1790,985.51Z"/><path class="cls-4" d="M1106,18.36a1.63,1.63,0,0,1-1.3-2.62l.83-1.1a1.63,1.63,0,1,1,2.6,2l-.83,1.1A1.63,1.63,0,0,1,1106,18.36Z"/><path class="cls-4" d="M146,318.19a1.62,1.62,0,0,1-1.59-2l1-4.26a1.6,1.6,0,0,1,2-1.21,1.62,1.62,0,0,1,1.21,2l-1,4.26A1.64,1.64,0,0,1,146,318.19Z"/><path class="cls-4" d="M150.13,1208.37a1.58,1.58,0,0,1-1.12-.46l-1.73-1.64a1.63,1.63,0,0,1,2.25-2.36l1.73,1.64a1.63,1.63,0,0,1,.05,2.31A1.6,1.6,0,0,1,150.13,1208.37Z"/><path class="cls-4" d="M1089.62,766.29l-.33,0a1.64,1.64,0,0,1-1.27-1.93l.65-3.2a1.63,1.63,0,1,1,3.2.66l-.65,3.19A1.63,1.63,0,0,1,1089.62,766.29Z"/><path class="cls-4" d="M26.51,953.63a1.63,1.63,0,0,1-.11-3.26l1.3-.09a1.63,1.63,0,0,1,1.75,1.51,1.65,1.65,0,0,1-1.52,1.75l-1.3.09Z"/><path class="cls-4" d="M300,612.27a1.63,1.63,0,0,1-1-2.89l1-.87a1.63,1.63,0,0,1,2.3.22A1.64,1.64,0,0,1,302,611l-1.05.87A1.62,1.62,0,0,1,300,612.27Z"/><path class="cls-4" d="M155.08,1305.76a1.61,1.61,0,0,1-1-.33l-5.36-4a1.63,1.63,0,0,1,2-2.61l5.36,4a1.63,1.63,0,0,1,.32,2.29A1.61,1.61,0,0,1,155.08,1305.76Z"/><path class="cls-4" d="M1665.53,1086.23a1.61,1.61,0,0,1-1.13-.46,1.63,1.63,0,0,1,0-2.31l3.07-3.17a1.63,1.63,0,1,1,2.34,2.27l-3.07,3.17A1.6,1.6,0,0,1,1665.53,1086.23Z"/><path class="cls-4" d="M0,1561.1a1.74,1.74,0,0,1-.45-.06,1.63,1.63,0,0,1-1.12-2l.4-1.42a1.61,1.61,0,0,1,2-1.12,1.62,1.62,0,0,1,1.12,2l-.4,1.43A1.64,1.64,0,0,1,0,1561.1Z"/><path class="cls-4" d="M1.26,1149a1.65,1.65,0,0,1-1.41-.8l-3.28-5.58a1.63,1.63,0,0,1,.58-2.24,1.64,1.64,0,0,1,2.23.58l3.29,5.58a1.62,1.62,0,0,1-.58,2.23A1.58,1.58,0,0,1,1.26,1149Z"/><path class="cls-4" d="M1079.05,1371.74a1.63,1.63,0,0,1-1-2.89l1.65-1.36a1.63,1.63,0,1,1,2.07,2.53l-1.65,1.35A1.62,1.62,0,0,1,1079.05,1371.74Z"/><path class="cls-4" d="M1978.86,211.75a1.63,1.63,0,0,1-.88-3l22.41-14.5a1.63,1.63,0,1,1,1.77,2.74l-22.41,14.5A1.59,1.59,0,0,1,1978.86,211.75Z"/><path class="cls-4" d="M2525.94,702a1.63,1.63,0,0,1-1.63-1.59L2523,647.87a1.63,1.63,0,0,1,1.59-1.68,1.57,1.57,0,0,1,1.67,1.59l1.33,52.55A1.63,1.63,0,0,1,2526,702Z"/><path class="cls-4" d="M2465.93,8.34h-.18L2341.51-5.35a1.64,1.64,0,0,1-1.45-1.8,1.63,1.63,0,0,1,1.81-1.45L2466.11,5.08a1.64,1.64,0,0,1-.18,3.26Z"/><path class="cls-4" d="M2435.05,909.76a1.65,1.65,0,0,1-1.58-1.22l-7.45-28a1.64,1.64,0,0,1,1.16-2,1.61,1.61,0,0,1,2,1.16l7.45,28a1.63,1.63,0,0,1-1.16,2A1.52,1.52,0,0,1,2435.05,909.76Z"/><path class="cls-4" d="M2742.8,39.64a1.67,1.67,0,0,1-1.14-.46l-55.75-53.86a1.63,1.63,0,0,1,0-2.31,1.65,1.65,0,0,1,2.31,0l55.75,53.86a1.63,1.63,0,0,1-1.13,2.81Z"/><path class="cls-4" d="M2077.21,275.67a1.63,1.63,0,0,1-1.61-1.41l-7.07-49.89a1.62,1.62,0,0,1,1.39-1.84,1.66,1.66,0,0,1,1.84,1.39l7.07,49.88a1.63,1.63,0,0,1-1.39,1.85Z"/><path class="cls-4" d="M2255.75,1598.27a1.63,1.63,0,0,1-.39-3.21l24.82-6.08a1.63,1.63,0,1,1,.78,3.17l-24.82,6.08A1.72,1.72,0,0,1,2255.75,1598.27Z"/><path class="cls-4" d="M2809.55,1555.91a1.64,1.64,0,0,1-1.33-.68,1.62,1.62,0,0,1,.38-2.28l32-23a1.64,1.64,0,0,1,2.28.38,1.61,1.61,0,0,1-.38,2.27l-32,22.95A1.61,1.61,0,0,1,2809.55,1555.91Z"/><path class="cls-4" d="M1960.62,772a1.63,1.63,0,0,1-.82-.22l-22.58-13.07a1.63,1.63,0,0,1,1.63-2.83l22.59,13.07a1.64,1.64,0,0,1-.82,3Z"/><path class="cls-4" d="M2045.35,1112.52a1.61,1.61,0,0,1-1-.3L2005,1083.81a1.63,1.63,0,1,1,1.91-2.64l39.36,28.4a1.63,1.63,0,0,1-1,3Z"/><path class="cls-4" d="M2609,1400a1.64,1.64,0,0,1-1.54-1.09l-22.42-63.53a1.63,1.63,0,1,1,3.08-1.09l22.42,63.54a1.63,1.63,0,0,1-1,2.08A1.7,1.7,0,0,1,2609,1400Z"/><path class="cls-4" d="M2280.33,729.7h-.22a1.65,1.65,0,0,1-1.41-1.83l7.22-56.3a1.63,1.63,0,1,1,3.24.41l-7.22,56.31A1.63,1.63,0,0,1,2280.33,729.7Z"/><path class="cls-4" d="M2707.2,823.1H2707a1.64,1.64,0,0,1-1.39-1.84l4.07-29.58a1.65,1.65,0,0,1,1.84-1.39,1.63,1.63,0,0,1,1.4,1.84l-4.08,29.57A1.63,1.63,0,0,1,2707.2,823.1Z"/><path class="cls-4" d="M2254.82,1378.56h-.09l-117.33-5.87a1.63,1.63,0,0,1-1.54-1.72,1.53,1.53,0,0,1,1.71-1.54l117.33,5.87a1.63,1.63,0,0,1-.08,3.26Z"/><path class="cls-4" d="M2295.75,1523a1.6,1.6,0,0,1-1.26-.6L2228,1440.8a1.63,1.63,0,1,1,2.53-2.06l66.47,81.59a1.64,1.64,0,0,1-.24,2.3A1.66,1.66,0,0,1,2295.75,1523Z"/><path class="cls-4" d="M2021.31,372.84a1.63,1.63,0,0,1-1.06-2.87L2041.19,352a1.64,1.64,0,0,1,2.3.18,1.62,1.62,0,0,1-.18,2.3l-20.93,17.93A1.66,1.66,0,0,1,2021.31,372.84Z"/><path class="cls-4" d="M2255.43,5h0l-93.17-2.44a1.63,1.63,0,0,1-1.59-1.67,1.72,1.72,0,0,1,1.68-1.59l93.16,2.44a1.63,1.63,0,0,1,0,3.26Z"/><path class="cls-4" d="M2683.74,981.69a1.62,1.62,0,0,1-.94-.3l-78.13-54.88a1.63,1.63,0,1,1,1.87-2.67l78.13,54.88a1.63,1.63,0,0,1-.93,3Z"/><path class="cls-4" d="M2619.33,644.74a1.63,1.63,0,0,1-1.22-2.72l53.94-60.36a1.63,1.63,0,1,1,2.43,2.18l-53.93,60.36A1.63,1.63,0,0,1,2619.33,644.74Z"/><path class="cls-4" d="M2444.67,1778.16a1.63,1.63,0,0,1-1.23-2.71L2458.8,1758a1.63,1.63,0,1,1,2.45,2.16l-15.35,17.49A1.67,1.67,0,0,1,2444.67,1778.16Z"/><path class="cls-4" d="M2567.72,1539h-.07l-52.77-2.08a1.63,1.63,0,0,1-1.56-1.7,1.6,1.6,0,0,1,1.69-1.57l52.77,2.09a1.63,1.63,0,0,1-.06,3.26Z"/><path class="cls-4" d="M2294,186.15a1.63,1.63,0,0,1-1.63-1.49,1.65,1.65,0,0,1,1.49-1.77l112.74-9.4a1.65,1.65,0,0,1,1.76,1.49,1.62,1.62,0,0,1-1.48,1.76l-112.74,9.4Z"/><path class="cls-4" d="M2646.83,1693.43a1.63,1.63,0,0,1-.92-.28,1.65,1.65,0,0,1-.43-2.27l17.09-25a1.63,1.63,0,1,1,2.7,1.84l-17.09,25A1.64,1.64,0,0,1,2646.83,1693.43Z"/><path class="cls-4" d="M1953.76,123.92a1.62,1.62,0,0,1-1.49-1l-16.08-36.37a1.63,1.63,0,0,1,3-1.32l16.08,36.37a1.64,1.64,0,0,1-.83,2.16A1.7,1.7,0,0,1,1953.76,123.92Z"/><path class="cls-4" d="M2100.52,1788.86a1.64,1.64,0,0,1-.53-.09l-79.81-27.62a1.63,1.63,0,0,1,1.06-3.09l79.81,27.62a1.63,1.63,0,0,1-.53,3.18Z"/><path class="cls-4" d="M2439.33,410.25h-.15l-94.25-8.44a1.63,1.63,0,0,1-1.48-1.77,1.61,1.61,0,0,1,1.77-1.48l94.25,8.44a1.63,1.63,0,0,1-.14,3.26Z"/><path class="cls-4" d="M2196.61,1203.93a1.63,1.63,0,0,1-1.55-1.13l-8.79-26.9a1.64,1.64,0,0,1,3.11-1l8.78,26.91a1.64,1.64,0,0,1-1,2.06A1.81,1.81,0,0,1,2196.61,1203.93Z"/><path class="cls-4" d="M2631.21,860.63a1.64,1.64,0,0,1-1.38-.75l-54.66-84.48a1.63,1.63,0,0,1,2.74-1.77l54.67,84.48a1.64,1.64,0,0,1-.49,2.26A1.67,1.67,0,0,1,2631.21,860.63Z"/><path class="cls-4" d="M1931,398.33a1.6,1.6,0,0,1-1.25-.6l-15.86-19.17a1.63,1.63,0,1,1,2.52-2.08l15.85,19.18a1.61,1.61,0,0,1-.22,2.29A1.57,1.57,0,0,1,1931,398.33Z"/><path class="cls-4" d="M1822.89,128.44a1.63,1.63,0,0,1-.48-3.19l37.68-11.59a1.63,1.63,0,0,1,1,3.12l-37.67,11.59A1.71,1.71,0,0,1,1822.89,128.44Z"/><path class="cls-4" d="M2271.85,1295.38h-.21a1.64,1.64,0,0,1-1.42-1.82l2.91-23.34a1.63,1.63,0,0,1,3.24.4l-2.91,23.34A1.62,1.62,0,0,1,2271.85,1295.38Z"/><path class="cls-4" d="M2614.61,173.75a1.62,1.62,0,0,1-1.16-2.77l68.24-69.7a1.63,1.63,0,1,1,2.33,2.28l-68.24,69.7A1.61,1.61,0,0,1,2614.61,173.75Z"/><path class="cls-4" d="M2709.37,238.78a1.63,1.63,0,0,1-1-2.91l26.47-21a1.62,1.62,0,0,1,2.29.26,1.64,1.64,0,0,1-.27,2.3l-26.46,21A1.63,1.63,0,0,1,2709.37,238.78Z"/><path class="cls-4" d="M2016.26,595.57a1.64,1.64,0,0,1-1.58-1.19l-35.94-128.12a1.63,1.63,0,0,1,3.14-.88l35.95,128.12a1.63,1.63,0,0,1-1.13,2A1.72,1.72,0,0,1,2016.26,595.57Z"/><path class="cls-4" d="M1981.88,688.69a1.59,1.59,0,0,1-1.1-.43l-16.4-15a1.63,1.63,0,0,1,2.21-2.41l16.39,15a1.64,1.64,0,0,1-1.1,2.84Z"/><path class="cls-4" d="M2426.43,1194.16a1.64,1.64,0,0,1-.91-3l24.84-16.72a1.63,1.63,0,1,1,1.82,2.71l-24.84,16.72A1.6,1.6,0,0,1,2426.43,1194.16Z"/><path class="cls-4" d="M2601.4,518.35a1.56,1.56,0,0,1-.8-.22,1.63,1.63,0,0,1-.62-2.22l15.95-28a1.63,1.63,0,1,1,2.84,1.62l-15.95,28A1.63,1.63,0,0,1,2601.4,518.35Z"/><path class="cls-4" d="M2291.71,257h-.05L2166,253.24a1.64,1.64,0,0,1-1.59-1.68,1.62,1.62,0,0,1,1.68-1.58l125.64,3.76a1.63,1.63,0,0,1-.05,3.26Z"/><path class="cls-4" d="M2510,1216a1.63,1.63,0,0,1-.1-3.26l25.66-1.63a1.63,1.63,0,0,1,.21,3.26l-25.67,1.63Z"/><path class="cls-4" d="M1824.92,241.19a1.64,1.64,0,0,1-1.62-1.5l-2.17-26.42a1.64,1.64,0,0,1,1.5-1.76,1.7,1.7,0,0,1,1.76,1.5l2.16,26.41a1.62,1.62,0,0,1-1.49,1.76Z"/><path class="cls-4" d="M2494.69,1303.16a1.66,1.66,0,0,1-1.09-.41l-23-20.61a1.63,1.63,0,0,1,2.17-2.44l23.05,20.61a1.63,1.63,0,0,1-1.09,2.85Z"/><path class="cls-4" d="M2866.93,436.88a1.79,1.79,0,0,1-.71-.16L2760.44,386a1.63,1.63,0,1,1,1.41-2.95l105.78,50.72a1.63,1.63,0,0,1-.7,3.11Z"/><path class="cls-4" d="M1827.69,353.57a1.6,1.6,0,0,1-.78-.21,1.63,1.63,0,0,1-.65-2.21l10.89-20a1.63,1.63,0,1,1,2.86,1.56l-10.89,20A1.61,1.61,0,0,1,1827.69,353.57Z"/><path class="cls-4" d="M2465.34,135.74a1.62,1.62,0,0,1-1.57-1.22l-8.7-32.72a1.63,1.63,0,0,1,3.16-.83l8.69,32.72a1.63,1.63,0,0,1-1.16,2A1.52,1.52,0,0,1,2465.34,135.74Z"/><path class="cls-4" d="M2529,438.21a1.63,1.63,0,0,1-.75-3.08l31.84-16.29a1.65,1.65,0,0,1,2.2.71,1.64,1.64,0,0,1-.71,2.2L2529.71,438A1.65,1.65,0,0,1,2529,438.21Z"/><path class="cls-4" d="M2841.68,1269.61a1.63,1.63,0,0,1-1.38-.76l-37.6-59.19a1.63,1.63,0,0,1,2.76-1.75l37.6,59.19a1.65,1.65,0,0,1-.5,2.26A1.68,1.68,0,0,1,2841.68,1269.61Z"/><path class="cls-4" d="M2699.91,1345.31a1.57,1.57,0,0,1-.81-.22,1.62,1.62,0,0,1-.61-2.22l43.68-77a1.63,1.63,0,1,1,2.84,1.61l-43.69,77A1.63,1.63,0,0,1,2699.91,1345.31Z"/><path class="cls-4" d="M2343.82,110.84a1.64,1.64,0,0,1-1.47-.91L2316,56.64a1.63,1.63,0,0,1,2.93-1.45l26.37,53.3a1.63,1.63,0,0,1-.74,2.18A1.55,1.55,0,0,1,2343.82,110.84Z"/><path class="cls-4" d="M2727.71,1600.89a1.71,1.71,0,0,1-.76-.19l-67-35.43a1.63,1.63,0,1,1,1.52-2.89l67,35.43a1.63,1.63,0,0,1,.69,2.2A1.65,1.65,0,0,1,2727.71,1600.89Z"/><path class="cls-4" d="M2505,1436.11a1.62,1.62,0,0,1-1.52-2.23l9-22.75a1.63,1.63,0,0,1,3,1.2l-9,22.75A1.62,1.62,0,0,1,2505,1436.11Z"/><path class="cls-4" d="M2112.6,401.33a2.2,2.2,0,0,1-.44-.05,1.64,1.64,0,0,1-1.14-2l11.37-41.17a1.63,1.63,0,0,1,3.15.87l-11.37,41.17A1.62,1.62,0,0,1,2112.6,401.33Z"/><path class="cls-4" d="M2499.34,1669.21a1.63,1.63,0,0,1-1.63-1.54l-2.46-46.25a1.63,1.63,0,1,1,3.26-.18l2.46,46.25a1.63,1.63,0,0,1-1.54,1.72Z"/><path class="cls-4" d="M2223.16,917.76a1.63,1.63,0,0,1-.18-3.25l125.71-14.06a1.67,1.67,0,0,1,1.8,1.44,1.63,1.63,0,0,1-1.44,1.81l-125.7,14Z"/><path class="cls-4" d="M1873.22,1461.94a1.58,1.58,0,0,1-.82-.22l-41.68-24.2a1.64,1.64,0,0,1,1.64-2.83l41.68,24.2a1.64,1.64,0,0,1-.82,3Z"/><path class="cls-4" d="M2324,817.25a1.63,1.63,0,0,1-1-3L2360.76,787a1.63,1.63,0,0,1,1.91,2.65L2324.9,817A1.67,1.67,0,0,1,2324,817.25Z"/><path class="cls-4" d="M2129.05,1114.29a1.31,1.31,0,0,1-.39,0,1.62,1.62,0,0,1-1.19-2l22.13-89.1a1.65,1.65,0,0,1,2-1.19,1.63,1.63,0,0,1,1.19,2l-22.13,89.09A1.65,1.65,0,0,1,2129.05,1114.29Z"/><path class="cls-4" d="M2583.14,1278.09a1.63,1.63,0,0,1-.9-3l94.88-62.48a1.64,1.64,0,1,1,1.8,2.73L2584,1277.82A1.66,1.66,0,0,1,2583.14,1278.09Z"/><path class="cls-4" d="M1976.5,904a26.38,26.38,0,0,1-14-4,1.63,1.63,0,1,1,1.73-2.77,23.23,23.23,0,0,0,24.63-39.39,1.63,1.63,0,1,1,1.73-2.76A26.48,26.48,0,0,1,1976.5,904Z"/><path class="cls-4" d="M2158,1298.81a1.64,1.64,0,0,1-1.62-1.42,16,16,0,0,1,13.78-17.92,16,16,0,0,1,17.92,13.78,1.63,1.63,0,0,1-3.24.42,12.72,12.72,0,0,0-25.22,3.3,1.63,1.63,0,0,1-1.41,1.83Z"/><path class="cls-4" d="M2627.36,1057.29a12.34,12.34,0,0,1-.4-24.67,1.53,1.53,0,0,1,1.68,1.58,1.64,1.64,0,0,1-1.58,1.69,9.07,9.07,0,0,0-8.76,9.37,9.22,9.22,0,0,0,9.37,8.76,1.56,1.56,0,0,1,1.69,1.58,1.64,1.64,0,0,1-1.58,1.69Z"/><path class="cls-4" d="M2787.87,1691.45a1.63,1.63,0,0,1-.84-3,16.83,16.83,0,1,0-17.34-28.85,1.63,1.63,0,0,1-1.68-2.8,20.1,20.1,0,0,1,20.7,34.45A1.74,1.74,0,0,1,2787.87,1691.45Z"/><path class="cls-4" d="M2049.38,1654.32a1.63,1.63,0,0,1-1.57-1.19,44.3,44.3,0,0,1,85.37-23.67,1.63,1.63,0,0,1-1.14,2,1.61,1.61,0,0,1-2-1.13,41,41,0,1,0-79.07,21.92,1.62,1.62,0,0,1-1.14,2A1.34,1.34,0,0,1,2049.38,1654.32Z"/><path class="cls-4" d="M2188.65,712.14c-.3,0-.61,0-.91,0a10.73,10.73,0,0,1-7.36-3.79,1.64,1.64,0,0,1,2.5-2.11,7.54,7.54,0,1,0,11.51-9.75,1.63,1.63,0,1,1,2.49-2.11,10.81,10.81,0,0,1-8.23,17.8Z"/><path class="cls-4" d="M2399.46,1571.07a39.38,39.38,0,0,1-34.32-20,1.63,1.63,0,1,1,2.84-1.6,36.08,36.08,0,0,0,62.83-35.5,1.63,1.63,0,0,1,2.85-1.6,39.34,39.34,0,0,1-34.2,58.69Z"/><path class="cls-4" d="M2008.29,1489.47a1.64,1.64,0,0,1-.54-3.18,12,12,0,0,0-7.84-22.64,1.63,1.63,0,0,1-1.06-3.09,15.25,15.25,0,0,1,10,28.82A1.69,1.69,0,0,1,2008.29,1489.47Z"/><path class="cls-4" d="M2574.82,28.88a45.77,45.77,0,0,1-45.69-44.54,1.64,1.64,0,0,1,1.59-1.67,1.62,1.62,0,0,1,1.67,1.59A42.38,42.38,0,0,0,2576,25.6a42.16,42.16,0,0,0,29.69-13.21,42.21,42.21,0,0,0,11.65-30.34,1.62,1.62,0,0,1,1.59-1.67,1.59,1.59,0,0,1,1.67,1.59A45.42,45.42,0,0,1,2608,14.64a45.42,45.42,0,0,1-32,14.23Z"/><path class="cls-4" d="M2229.75,1730.62a1.63,1.63,0,0,1-1.31-.65,39.25,39.25,0,1,1,62.57-47.41,1.63,1.63,0,0,1-2.6,2,36,36,0,1,0-57.36,43.47,1.64,1.64,0,0,1-1.3,2.62Z"/><path class="cls-4" d="M2784,1399.19a1.63,1.63,0,0,1-1.58-1.23,29.65,29.65,0,0,1,57.41-14.84,1.63,1.63,0,0,1-3.16.82,26.39,26.39,0,1,0-51.09,13.21,1.64,1.64,0,0,1-1.17,2A2,2,0,0,1,2784,1399.19Z"/><path class="cls-4" d="M2736.59,1060.54a1.63,1.63,0,0,1-.76-3.07,14.89,14.89,0,1,0-13.84-26.36,1.63,1.63,0,0,1-1.52-2.89,18.14,18.14,0,1,1,16.87,32.13A1.58,1.58,0,0,1,2736.59,1060.54Z"/><path class="cls-4" d="M1865.86,844.31a32.84,32.84,0,0,1-18-60.36,1.63,1.63,0,1,1,1.78,2.74A29.59,29.59,0,0,0,1882,836.26a1.63,1.63,0,0,1,1.78,2.73A32.68,32.68,0,0,1,1865.86,844.31Z"/><path class="cls-4" d="M2769.37,953.2a1.63,1.63,0,0,1-1-2.9,29.3,29.3,0,0,0-36.78-45.61,1.64,1.64,0,0,1-2.05-2.55,32.56,32.56,0,1,1,40.87,50.7A1.63,1.63,0,0,1,2769.37,953.2Z"/><path class="cls-4" d="M2314.12,1188.82a14.34,14.34,0,0,1-3.17-.36,14.18,14.18,0,0,1-4.4-25.83,1.63,1.63,0,0,1,1.74,2.76,10.91,10.91,0,1,0,11.62,18.48,1.63,1.63,0,0,1,1.74,2.76A14.1,14.1,0,0,1,2314.12,1188.82Z"/><path class="cls-4" d="M2519,235.4a10.54,10.54,0,0,1-3.78-.71,1.64,1.64,0,0,1,1.18-3.05,7.26,7.26,0,0,0,5.24-13.54,1.64,1.64,0,1,1,1.18-3A10.53,10.53,0,0,1,2519,235.4Z"/><path class="cls-4" d="M2455.29,299.05c-.4,0-.8,0-1.21,0a16.73,16.73,0,0,1-9.77-29.33,1.63,1.63,0,0,1,2.14,2.47,13.46,13.46,0,0,0,7.86,23.6,13.29,13.29,0,0,0,9.78-3.26,1.63,1.63,0,0,1,2.14,2.47A16.61,16.61,0,0,1,2455.29,299.05Z"/><path class="cls-4" d="M1904.78,1605a1.64,1.64,0,0,1-.32-3.24,41.51,41.51,0,1,0-16.33-81.39,1.63,1.63,0,0,1-.64-3.2,44.77,44.77,0,1,1,17.62,87.79A1.24,1.24,0,0,1,1904.78,1605Z"/><path class="cls-4" d="M1974.1,993.31a1.54,1.54,0,0,1-.66-.14,1.62,1.62,0,0,1-.83-2.15,9.38,9.38,0,0,0-17.13-7.64,1.63,1.63,0,1,1-3-1.33,12.64,12.64,0,0,1,23.35.62,12.52,12.52,0,0,1-.26,9.67A1.62,1.62,0,0,1,1974.1,993.31Z"/><path class="cls-4" d="M1889.38,1148.56a1.63,1.63,0,0,1-.7-3.11,47.54,47.54,0,1,0-40.8-85.89,1.63,1.63,0,0,1-1.41-3,50.81,50.81,0,1,1,43.61,91.79A1.56,1.56,0,0,1,1889.38,1148.56Z"/><path class="cls-4" d="M2380.68,1064.69a40.64,40.64,0,0,1-16.79-3.65,1.63,1.63,0,1,1,1.34-3,37.54,37.54,0,0,0,30.94-68.4,1.63,1.63,0,1,1,1.34-3,40.82,40.82,0,0,1-16.83,78Z"/><path class="cls-4" d="M2071.9,738.69a1.67,1.67,0,0,1-1.12-.44,26.08,26.08,0,1,1,35.63-38.09,1.63,1.63,0,1,1-2.23,2.38A22.82,22.82,0,1,0,2073,735.87a1.63,1.63,0,0,1-1.11,2.82Z"/><path class="cls-4" d="M2428.15,570a40.35,40.35,0,0,1-4.44-80.44,1.69,1.69,0,0,1,1.8,1.44,1.63,1.63,0,0,1-1.44,1.81,37.08,37.08,0,1,0,8.33,73.69,1.66,1.66,0,0,1,1.8,1.44,1.64,1.64,0,0,1-1.44,1.81A42,42,0,0,1,2428.15,570Z"/><path class="cls-4" d="M2744.8,1481.81a47.64,47.64,0,0,1-41.51-70.83,1.63,1.63,0,1,1,2.85,1.59,44.35,44.35,0,1,0,77.46,43.21,1.63,1.63,0,0,1,2.85,1.59,47.28,47.28,0,0,1-28.58,22.61A48,48,0,0,1,2744.8,1481.81Z"/><path class="cls-4" d="M1972.93,10.25a23.45,23.45,0,0,1-9.45-2,23.45,23.45,0,0,1-12.51-13,23.42,23.42,0,0,1,.37-18.06,1.64,1.64,0,0,1,2.15-.84,1.63,1.63,0,0,1,.84,2.15A20.21,20.21,0,0,0,1954-5.95a20.22,20.22,0,0,0,10.78,11.22,20.16,20.16,0,0,0,15.57.32,20.15,20.15,0,0,0,11.22-10.78,1.66,1.66,0,0,1,2.16-.84,1.64,1.64,0,0,1,.83,2.15A23.62,23.62,0,0,1,1972.93,10.25Z"/><path class="cls-4" d="M2567.22,1138.13a41.36,41.36,0,0,1-20.73-77.2,1.63,1.63,0,1,1,1.63,2.83,38.1,38.1,0,0,0,38.06,66,1.63,1.63,0,1,1,1.63,2.83A41.14,41.14,0,0,1,2567.22,1138.13Z"/><path class="cls-4" d="M2289.92,1797a2.33,2.33,0,0,1-1.63-1.91,31.29,31.29,0,1,1,62.52-2.67,1.46,1.46,0,0,1-1.56,1.58h-.07a1.45,1.45,0,0,1-1.63-1.44,28,28,0,1,0-56,2.39,2.31,2.31,0,0,1-1.57,2Z"/><path class="cls-4" d="M2087,1259.6a1.67,1.67,0,0,1-.95-.3,1.65,1.65,0,0,1-.39-2.28,23.25,23.25,0,1,0-38-26.87,1.64,1.64,0,1,1-2.67-1.89,26.53,26.53,0,1,1,43.3,30.65A1.63,1.63,0,0,1,2087,1259.6Z"/><path class="cls-4" d="M2674.68,1143.16a13.54,13.54,0,0,1-11.77-6.83,13.52,13.52,0,0,1,5.06-18.44,1.63,1.63,0,1,1,1.62,2.83,10.26,10.26,0,1,0,10.15,17.83,1.63,1.63,0,0,1,1.61,2.84A13.44,13.44,0,0,1,2674.68,1143.16Z"/><path class="cls-4" d="M2717.55,486a12.69,12.69,0,0,1-3.44-.48,12.51,12.51,0,0,1-8.62-15.46,1.63,1.63,0,0,1,3.14.89,9.25,9.25,0,0,0,6.38,11.43,9.25,9.25,0,0,0,11.42-6.37,1.63,1.63,0,0,1,2-1.13,1.64,1.64,0,0,1,1.13,2,12.55,12.55,0,0,1-12,9.1Z"/><path class="cls-4" d="M2800.12,636.48a39,39,0,0,1-26.19-67.85,1.64,1.64,0,0,1,2.2,2.42A35.71,35.71,0,1,0,2824.08,624a1.63,1.63,0,0,1,2.19,2.42A38.84,38.84,0,0,1,2800.12,636.48Z"/><path class="cls-4" d="M2041,1373h-.2a1.64,1.64,0,0,1-1.6-1.66,1.68,1.68,0,0,1,1.66-1.6,7.69,7.69,0,0,0,7.76-8.88,7.09,7.09,0,0,0-.9-2.63,7.74,7.74,0,0,0-6.57-3.9,1.62,1.62,0,0,1-1.6-1.66,1.71,1.71,0,0,1,1.66-1.6,11,11,0,0,1,10.76,11.16A11,11,0,0,1,2041,1373Z"/><path class="cls-4" d="M2122.85,488a47.15,47.15,0,0,1-44.13-30.57,1.63,1.63,0,1,1,3.05-1.14,43.81,43.81,0,0,0,82.06-30.72,1.63,1.63,0,1,1,3.06-1.14,47.07,47.07,0,0,1-44,63.57Z"/><path class="cls-4" d="M2246.6,588.22a31.48,31.48,0,0,1-31-26.65,1.63,1.63,0,1,1,3.23-.5,28.2,28.2,0,1,0,55.74-8.63,1.62,1.62,0,0,1,1.36-1.86,1.66,1.66,0,0,1,1.87,1.36,31.47,31.47,0,0,1-26.29,35.91A32.17,32.17,0,0,1,2246.6,588.22Z"/><path class="cls-4" d="M2129.5,1722.3a11.31,11.31,0,0,1-7.73-19.58,1.65,1.65,0,0,1,2.31.08,1.63,1.63,0,0,1-.08,2.31,8,8,0,0,0,11,11.76,1.63,1.63,0,0,1,2.23,2.39A11.29,11.29,0,0,1,2129.5,1722.3Z"/><path class="cls-4" d="M2485.85,824.85a1.74,1.74,0,0,1-.66-.14,1.64,1.64,0,0,1-.84-2.15A17.66,17.66,0,1,0,2452,808.37a1.63,1.63,0,1,1-3-1.31,20.92,20.92,0,1,1,38.32,16.81A1.62,1.62,0,0,1,2485.85,824.85Z"/><path class="cls-4" d="M1827.88,1319.82a1.63,1.63,0,0,1-.18-3.25,45.69,45.69,0,1,0-10.17-90.81,1.63,1.63,0,1,1-.36-3.24,48.95,48.95,0,1,1,10.89,97.29Z"/><path class="cls-4" d="M2609.81,289.79a10.67,10.67,0,0,1-4.73-1.12,1.63,1.63,0,0,1,1.46-2.92,7.34,7.34,0,0,0,6.56-13.14,1.63,1.63,0,0,1,1.46-2.92,10.61,10.61,0,0,1-4.75,20.1Z"/><path class="cls-4" d="M2060.53,142.64a1.64,1.64,0,0,1-1.57-1.2,43.45,43.45,0,0,1,83.76-23.16,1.63,1.63,0,0,1-1.14,2,1.61,1.61,0,0,1-2-1.14,40.19,40.19,0,0,0-77.48,21.42,1.62,1.62,0,0,1-1.13,2A1.67,1.67,0,0,1,2060.53,142.64Z"/><path class="cls-4" d="M2787.13,141.42a16.36,16.36,0,0,1-6.72-1.44,1.63,1.63,0,0,1,1.34-3,13.18,13.18,0,0,0,10.82-24,1.63,1.63,0,0,1,1.34-3,16.44,16.44,0,0,1-6.78,31.43Z"/><path class="cls-4" d="M2363.84,1722.31a1.63,1.63,0,0,1-.3-3.24,38.94,38.94,0,0,0-14.6-76.5,1.63,1.63,0,0,1-.61-3.21,42.21,42.21,0,0,1,15.82,82.92A1.63,1.63,0,0,1,2363.84,1722.31Z"/><path class="cls-4" d="M2193.8,1792.71a1.59,1.59,0,0,1-.64-.13,10.22,10.22,0,0,1,8-18.8,1.64,1.64,0,0,1-1.28,3,6.95,6.95,0,1,0-5.44,12.79,1.63,1.63,0,0,1-.64,3.13Z"/><path class="cls-4" d="M1901.08,240a12.7,12.7,0,0,1-7.33-2.32,1.63,1.63,0,0,1-.41-2.27,1.65,1.65,0,0,1,2.28-.4,9.61,9.61,0,0,0,11-15.78,1.62,1.62,0,0,1-.41-2.27,1.64,1.64,0,0,1,2.27-.41,12.89,12.89,0,0,1,3.21,17.92,12.73,12.73,0,0,1-8.29,5.32A12.86,12.86,0,0,1,1901.08,240Z"/><path class="cls-4" d="M2393.9,1134a1.68,1.68,0,0,1-.89-.26,1.63,1.63,0,0,1-.48-2.26,14.25,14.25,0,0,0-23.85-15.61,1.63,1.63,0,0,1-2.74-1.78,17.52,17.52,0,1,1,29.33,19.17A1.65,1.65,0,0,1,2393.9,1134Z"/><path class="cls-4" d="M1847.35,23h0a14.39,14.39,0,0,1,.31-28.78h.37a1.62,1.62,0,0,1,1.42,1,1.65,1.65,0,0,1-1.52,2.26h-.27a11.15,11.15,0,0,0-11.13,10.89,11.33,11.33,0,0,0,7.4,10.81,10.78,10.78,0,0,0,3.53.56,1.63,1.63,0,0,1-.07,3.26Z"/><path class="cls-4" d="M2235,125.49a12.21,12.21,0,0,1-2.4-.24A11.73,11.73,0,0,1,2228.5,104a1.63,1.63,0,0,1,1.79,2.73,8.46,8.46,0,0,0,9.3,14.13,1.64,1.64,0,0,1,1.8,2.73A11.69,11.69,0,0,1,2235,125.49Z"/><path class="cls-4" d="M2431.2,722.05A45.13,45.13,0,0,1,2414.53,635a1.63,1.63,0,1,1,1.21,3,41.86,41.86,0,1,0,30.94,77.79,1.63,1.63,0,1,1,1.2,3A45,45,0,0,1,2431.2,722.05Z"/><path class="cls-4" d="M2702,1779.26a36.92,36.92,0,0,1-17.39-4.37,1.63,1.63,0,0,1,1.54-2.88,33.82,33.82,0,0,0,31.79-59.7,1.63,1.63,0,1,1,1.54-2.88,37.11,37.11,0,0,1-17.48,69.83Z"/><path class="cls-4" d="M2500.72,1004.58a48.41,48.41,0,0,1-47.33-38.64,1.63,1.63,0,1,1,3.2-.66,45.06,45.06,0,0,0,88.29-18.06,1.63,1.63,0,1,1,3.2-.65,48.37,48.37,0,0,1-47.36,58Z"/><path class="cls-4" d="M1962,1736.38a1.62,1.62,0,0,1-1.11-.43,12.11,12.11,0,1,1,16.42-17.8,1.63,1.63,0,1,1-2.22,2.39,8.9,8.9,0,0,0-6.35-2.33,8.84,8.84,0,0,0-5.63,15.34,1.63,1.63,0,0,1-1.11,2.83Z"/><path class="cls-4" d="M2355.43,1402.65a1.63,1.63,0,0,1-1.55-1.11,50.48,50.48,0,1,1,95.65-32.33,1.63,1.63,0,1,1-3.09,1,47.22,47.22,0,0,0-89.47,30.24,1.63,1.63,0,0,1-1,2.07A1.58,1.58,0,0,1,2355.43,1402.65Z"/><path class="cls-4" d="M2184,860.16a1.62,1.62,0,0,1-1.43-.84,31.69,31.69,0,0,1,55.55-30.51,1.64,1.64,0,0,1-2.87,1.57,28.42,28.42,0,1,0-49.82,27.37,1.63,1.63,0,0,1-.65,2.21A1.54,1.54,0,0,1,2184,860.16Z"/><path class="cls-4" d="M2120.08,1481.77a17.44,17.44,0,0,1-17.29-15.44,1.64,1.64,0,0,1,3.25-.37,14.14,14.14,0,1,0,28.1-3.19,1.63,1.63,0,0,1,3.24-.37,17.41,17.41,0,0,1-15.33,19.26A16.37,16.37,0,0,1,2120.08,1481.77Z"/><path class="cls-4" d="M2266.74,1026a33.63,33.63,0,0,1-7.37-.82,33.48,33.48,0,0,1-25.36-40,1.63,1.63,0,1,1,3.19.71,30.21,30.21,0,1,0,59,13.19,1.63,1.63,0,0,1,3.19.71,33.51,33.51,0,0,1-32.61,26.19Z"/><path class="cls-4" d="M1854.63,484.33a19.53,19.53,0,0,1-4.84-.62,19.1,19.1,0,0,1-13.67-23.29,1.61,1.61,0,0,1,2-1.17,1.62,1.62,0,0,1,1.16,2,15.84,15.84,0,0,0,30.66,8,1.62,1.62,0,0,1,2-1.17,1.64,1.64,0,0,1,1.17,2,19.11,19.11,0,0,1-18.46,14.3Z"/><path class="cls-4" d="M2411.71,1493.62a1.56,1.56,0,0,1-.78-.2,1.62,1.62,0,0,1-.66-2.21,26.94,26.94,0,0,0-47.38-25.67A1.63,1.63,0,0,1,2360,1464a30.21,30.21,0,1,1,53.12,28.78A1.63,1.63,0,0,1,2411.71,1493.62Z"/><path class="cls-4" d="M2614,1786a1.63,1.63,0,0,1-.93-3,11.17,11.17,0,1,0-12.68-18.4,1.64,1.64,0,1,1-1.86-2.69,14.44,14.44,0,0,1,16.4,23.77A1.6,1.6,0,0,1,2614,1786Z"/><path class="cls-4" d="M2613.74,1497.27a1.64,1.64,0,0,1-1.18-2.76,13.84,13.84,0,0,0-20.11-19,1.63,1.63,0,0,1-2.37-2.24,17.1,17.1,0,1,1,24.85,23.5A1.62,1.62,0,0,1,2613.74,1497.27Z"/><path class="cls-4" d="M2061.85,908.82a1.63,1.63,0,0,1-.47-3.2l2-.6a1.63,1.63,0,0,1,.93,3.13l-2,.6A1.47,1.47,0,0,1,2061.85,908.82Z"/><path class="cls-4" d="M2489.34,489.46a1.63,1.63,0,0,1-1.6-1.29l-1.14-5.29a1.63,1.63,0,1,1,3.19-.69l1.14,5.29a1.64,1.64,0,0,1-1.25,1.95Z"/><path class="cls-4" d="M2590.5,1627.4a1.59,1.59,0,0,1-1.17-.49l-4.44-4.6a1.63,1.63,0,1,1,2.34-2.27l4.44,4.6a1.62,1.62,0,0,1,0,2.3A1.59,1.59,0,0,1,2590.5,1627.4Z"/><path class="cls-4" d="M1947.19,1388a1.68,1.68,0,0,1-.69-.15l-5.46-2.57a1.64,1.64,0,0,1,1.39-3l5.46,2.57a1.63,1.63,0,0,1-.7,3.11Z"/><path class="cls-4" d="M2065.52,1000.37a1.65,1.65,0,0,1-1.2-.52,1.63,1.63,0,0,1,.08-2.3l1.66-1.55a1.63,1.63,0,1,1,2.23,2.38l-1.66,1.55A1.64,1.64,0,0,1,2065.52,1000.37Z"/><path class="cls-4" d="M2370.61,255.77a1.64,1.64,0,0,1-1.45-.87l-1-1.88a1.63,1.63,0,0,1,2.89-1.52l1,1.88a1.63,1.63,0,0,1-.68,2.2A1.61,1.61,0,0,1,2370.61,255.77Z"/><path class="cls-4" d="M2797,297.69a1.63,1.63,0,0,1-.45-3.2l7.14-2a1.63,1.63,0,1,1,.9,3.13l-7.14,2A1.41,1.41,0,0,1,2797,297.69Z"/><path class="cls-4" d="M2532.15,885.15H2532l-5.73-.39a1.63,1.63,0,0,1-1.52-1.74,1.68,1.68,0,0,1,1.73-1.52l5.74.39a1.63,1.63,0,0,1-.11,3.26Z"/><path class="cls-4" d="M2633.48,726.85a1.64,1.64,0,0,1-1.62-1.44l-.48-4.15a1.64,1.64,0,0,1,3.25-.37l.48,4.14a1.63,1.63,0,0,1-1.44,1.81Z"/><path class="cls-4" d="M2550.38,118.61a1.61,1.61,0,0,1-1.36-.73l-.89-1.34a1.63,1.63,0,0,1,2.72-1.8l.89,1.34a1.63,1.63,0,0,1-.46,2.26A1.66,1.66,0,0,1,2550.38,118.61Z"/><path class="cls-4" d="M1946.74,1659.82a1.69,1.69,0,0,1-.84-.23,1.64,1.64,0,0,1-.56-2.24l1.21-2a1.66,1.66,0,0,1,2.25-.56,1.63,1.63,0,0,1,.55,2.24l-1.21,2A1.64,1.64,0,0,1,1946.74,1659.82Z"/><path class="cls-4" d="M2724.56,701.29h-.17l-3.87-.39a1.62,1.62,0,0,1-1.46-1.78,1.6,1.6,0,0,1,1.78-1.46l3.88.38a1.63,1.63,0,0,1-.16,3.26Z"/><path class="cls-4" d="M2530.54,566.17a1.63,1.63,0,0,1-1.62-1.47l-.61-6.21a1.63,1.63,0,0,1,1.46-1.78,1.68,1.68,0,0,1,1.79,1.46l.61,6.21a1.64,1.64,0,0,1-1.46,1.79Z"/><path class="cls-4" d="M2093,815a1.64,1.64,0,0,1-1.19-.51l-3.3-3.51a1.63,1.63,0,0,1,2.38-2.24l3.3,3.51a1.63,1.63,0,0,1-.07,2.31A1.67,1.67,0,0,1,2093,815Z"/><path class="cls-4" d="M2241.19,1106.89a1.63,1.63,0,0,1-.84-3l1.6-1a1.63,1.63,0,1,1,1.68,2.8l-1.6,1A1.64,1.64,0,0,1,2241.19,1106.89Z"/><path class="cls-4" d="M1811.47,1020.08a1.48,1.48,0,0,1-.51-.09,1.63,1.63,0,0,1-1-2.06l.46-1.39a1.62,1.62,0,0,1,2.06-1,1.64,1.64,0,0,1,1,2.07L1813,1019A1.65,1.65,0,0,1,1811.47,1020.08Z"/><path class="cls-4" d="M2534,345.48l-.05-5a1.52,1.52,0,0,1,1.52-1.53h0a1.53,1.53,0,0,1,1.53,1.52l.05,5a1.52,1.52,0,0,1-1.52,1.53h0A1.53,1.53,0,0,1,2534,345.48Z"/><path class="cls-4" d="M2281.49,472.74a1.7,1.7,0,0,1-.59-.1l-5.08-2a1.63,1.63,0,0,1,1.17-3.05l5.08,2a1.63,1.63,0,0,1-.58,3.15Z"/><path class="cls-4" d="M2806.77,780.79a1.62,1.62,0,0,1-1.09-.42l-5.62-5a1.63,1.63,0,0,1,2.18-2.43l5.62,5a1.63,1.63,0,0,1,.12,2.31A1.6,1.6,0,0,1,2806.77,780.79Z"/><path class="cls-4" d="M2753.51,1150.33a1.61,1.61,0,0,1-1.19-.52l-1.73-1.86a1.63,1.63,0,1,1,2.39-2.22l1.73,1.86a1.63,1.63,0,0,1-1.2,2.74Z"/><path class="cls-4" d="M1829,586.74h-.23a1.63,1.63,0,0,1-1.39-1.84l.32-2.34a1.61,1.61,0,0,1,1.83-1.4A1.63,1.63,0,0,1,1831,583l-.32,2.34A1.63,1.63,0,0,1,1829,586.74Z"/><path class="cls-4" d="M2641.48,398.17a1.4,1.4,0,0,1-1.48-1.49l0-6.22a1.43,1.43,0,0,1,1.49-1.48,1.48,1.48,0,0,1,1.47,1.49l0,6.23A1.47,1.47,0,0,1,2641.48,398.17Z"/><path class="cls-4" d="M1844.1,1379H1844l-1.75-.07a1.64,1.64,0,1,1,.06-3.27l1.75.07a1.67,1.67,0,0,1,1.57,1.15A1.63,1.63,0,0,1,1844.1,1379Z"/><path class="cls-4" d="M2137.54,930.74a1.67,1.67,0,0,1-.62-.12,1.64,1.64,0,0,1-.88-2.14l.71-1.71a1.63,1.63,0,0,1,3,1.25l-.71,1.71A1.63,1.63,0,0,1,2137.54,930.74Z"/><path class="cls-4" d="M2249.76,367.38a1.67,1.67,0,0,1-1.05-.38l-1.34-1.12a1.63,1.63,0,1,1,2.08-2.51l1.35,1.12a1.63,1.63,0,0,1-1,2.89Z"/><path class="cls-4" d="M1835.25,1639.36h-.1a1.63,1.63,0,0,1-1.53-1.72l.4-6.68a1.59,1.59,0,0,1,1.73-1.53,1.63,1.63,0,0,1,1.53,1.73l-.4,6.67A1.63,1.63,0,0,1,1835.25,1639.36Z"/><path class="cls-4" d="M1844.14,691.61H1844l-1.66-.18a1.64,1.64,0,0,1,.37-3.25l1.65.19a1.63,1.63,0,0,1-.18,3.25Z"/><path class="cls-4" d="M1926.89,1785.33a1.63,1.63,0,0,1-1.29-.63l-.91-1.16a1.64,1.64,0,1,1,2.59-2l.9,1.17a1.63,1.63,0,0,1-1.29,2.63Z"/><path class="cls-4" d="M1848.43,1712.88a1.63,1.63,0,0,1-.91-3l1.88-1.26a1.63,1.63,0,1,1,1.83,2.7l-1.89,1.27A1.6,1.6,0,0,1,1848.43,1712.88Z"/><path class="cls-4" d="M2698.72,336.67a1.64,1.64,0,0,1-1.33-2.59l3.34-4.64a1.61,1.61,0,0,1,2.27-.38,1.64,1.64,0,0,1,.38,2.28L2700,336A1.64,1.64,0,0,1,2698.72,336.67Z"/><path class="cls-4" d="M2551.56,1711.3a1.64,1.64,0,0,1-1.35-2.56l3.3-4.83a1.63,1.63,0,0,1,2.69,1.85l-3.29,4.83A1.64,1.64,0,0,1,2551.56,1711.3Z"/><path class="cls-4" d="M2826.9,1005.41a1.41,1.41,0,0,1-.4,0l-3.79-1a1.63,1.63,0,1,1,.8-3.16l3.8,1a1.63,1.63,0,0,1-.41,3.21Z"/><path class="cls-4" d="M1832.1,1783.49a1.64,1.64,0,0,1-.65-.13l-1.17-.51a1.63,1.63,0,1,1,1.3-3l1.17.51a1.63,1.63,0,0,1-.65,3.13Z"/><path class="cls-4" d="M2367.62,1261.4a1.63,1.63,0,0,1-.31-3.23l4-.79a1.63,1.63,0,0,1,.62,3.2l-4,.79A1.63,1.63,0,0,1,2367.62,1261.4Z"/><path class="cls-4" d="M1909.11,599.86a1.63,1.63,0,0,1-1.22-2.72l4.07-4.55a1.63,1.63,0,1,1,2.43,2.18l-4.06,4.54A1.64,1.64,0,0,1,1909.11,599.86Z"/><path class="cls-4" d="M2831.11,1772.84a2.2,2.2,0,0,1-.36,0l-6.66-1.49a1.63,1.63,0,1,1,.71-3.19l6.67,1.49a1.64,1.64,0,0,1-.36,3.23Z"/><path class="cls-4" d="M2193.16,1546.31a1.37,1.37,0,0,1-.4,0l-3.89-1a1.63,1.63,0,0,1,.8-3.16l3.89,1a1.63,1.63,0,0,1-.4,3.21Z"/><path class="cls-4" d="M2343,329.71a1.63,1.63,0,0,1-.14-3.26l5.3-.47a1.64,1.64,0,0,1,.29,3.26l-5.3.46Z"/><path class="cls-4" d="M2168.21,324.18a1.59,1.59,0,0,1-.84-.23L2160.8,320a1.63,1.63,0,0,1,1.68-2.8l6.56,3.94a1.63,1.63,0,0,1-.83,3Z"/><path class="cls-4" d="M2528.58,1785.68a1.63,1.63,0,0,1-1.47-2.34l.87-1.79a1.63,1.63,0,0,1,2.94,1.42l-.87,1.79A1.63,1.63,0,0,1,2528.58,1785.68Z"/><path class="cls-4" d="M2819.27,522.33a1.62,1.62,0,0,1-.87-.25l-1.7-1.06a1.63,1.63,0,1,1,1.73-2.77l1.7,1.06a1.62,1.62,0,0,1,.52,2.25A1.64,1.64,0,0,1,2819.27,522.33Z"/><path class="cls-4" d="M2153.37,186h0a1.58,1.58,0,0,1-1.58-1.63l.12-4.05a1.58,1.58,0,0,1,1.84-1.58,1.63,1.63,0,0,1,1.43,1.68l-.13,4A1.63,1.63,0,0,1,2153.37,186Z"/><path class="cls-4" d="M1965,304.19a1.62,1.62,0,0,1-1.59-2l1-4.26a1.6,1.6,0,0,1,2-1.21,1.62,1.62,0,0,1,1.21,2l-1,4.26A1.64,1.64,0,0,1,1965,304.19Z"/><path class="cls-4" d="M1969.13,1194.37a1.58,1.58,0,0,1-1.12-.46l-1.73-1.64a1.63,1.63,0,0,1,2.25-2.36l1.73,1.64a1.63,1.63,0,0,1,0,2.31A1.6,1.6,0,0,1,1969.13,1194.37Z"/><path class="cls-4" d="M1845.51,939.63a1.63,1.63,0,0,1-.11-3.26l1.3-.09a1.63,1.63,0,0,1,1.75,1.51,1.65,1.65,0,0,1-1.52,1.75l-1.3.09Z"/><path class="cls-4" d="M2119,598.27a1.63,1.63,0,0,1-1-2.89l1.05-.87a1.63,1.63,0,0,1,2.3.22,1.64,1.64,0,0,1-.22,2.3l-1.05.87A1.62,1.62,0,0,1,2119,598.27Z"/><path class="cls-4" d="M1974.08,1291.76a1.61,1.61,0,0,1-1-.33l-5.36-4a1.63,1.63,0,0,1,2-2.61l5.36,4a1.63,1.63,0,0,1,.32,2.29A1.61,1.61,0,0,1,1974.08,1291.76Z"/><path class="cls-4" d="M1819,1547.1a1.74,1.74,0,0,1-.45-.06,1.63,1.63,0,0,1-1.12-2l.4-1.42a1.63,1.63,0,0,1,3.14.89l-.4,1.43A1.64,1.64,0,0,1,1819,1547.1Z"/><path class="cls-4" d="M1820.26,1135a1.65,1.65,0,0,1-1.41-.8l-3.28-5.58a1.63,1.63,0,1,1,2.81-1.66l3.29,5.58a1.62,1.62,0,0,1-.58,2.23A1.58,1.58,0,0,1,1820.26,1135Z"/></g></svg>